<?xml version="1.0" encoding="UTF-8" standalone="no"?>
<!-- Created with Inkscape (http://www.inkscape.org/) -->

<svg
   version="1.1"
   id="svg1"
   width="150.66667"
   height="252"
   viewBox="0 0 150.66667 252"
   sodipodi:docname="page-11_cropped.pdf"
   xmlns:inkscape="http://www.inkscape.org/namespaces/inkscape"
   xmlns:sodipodi="http://sodipodi.sourceforge.net/DTD/sodipodi-0.dtd"
   xmlns="http://www.w3.org/2000/svg"
   xmlns:svg="http://www.w3.org/2000/svg">
  <defs
     id="defs1">
    <clipPath
       clipPathUnits="userSpaceOnUse"
       id="clipPath1">
      <path
         d="M 0,0 H 362.835 V 600.945 H 0 Z"
         transform="translate(-317.4793,-589.6082)"
         id="path1" />
    </clipPath>
    <clipPath
       clipPathUnits="userSpaceOnUse"
       id="clipPath2">
      <path
         d="M 0,0 H 362.835 V 600.945 H 0 Z"
         transform="translate(-317.48041,-22.677295)"
         id="path2" />
    </clipPath>
    <clipPath
       clipPathUnits="userSpaceOnUse"
       id="clipPath3">
      <path
         d="M 0,600.945 H 362.835 V 0 H 0 Z"
         transform="translate(-317.4803,-589.6063)"
         id="path3" />
    </clipPath>
    <clipPath
       clipPathUnits="userSpaceOnUse"
       id="clipPath4">
      <path
         d="M 0,0 H 362.835 V 600.945 H 0 Z"
         transform="matrix(0.43408,0,0,-0.43408,-2.9426667,258.876)"
         id="path4" />
    </clipPath>
    <clipPath
       clipPathUnits="userSpaceOnUse"
       id="clipPath5">
      <path
         d="M 0,0 H 362.835 V 600.945 H 0 Z"
         transform="translate(-226.7721,-22.677295)"
         id="path5" />
    </clipPath>
    <clipPath
       clipPathUnits="userSpaceOnUse"
       id="clipPath6">
      <path
         d="M 0,600.945 H 362.835 V 0 H 0 Z"
         transform="translate(-226.7717,-589.6063)"
         id="path6" />
    </clipPath>
    <clipPath
       clipPathUnits="userSpaceOnUse"
       id="clipPath7">
      <path
         d="M 0,0 H 362.835 V 600.945 H 0 Z"
         transform="matrix(0.43408,0,0,-0.43408,-2.9426667,258.876)"
         id="path7" />
    </clipPath>
    <clipPath
       clipPathUnits="userSpaceOnUse"
       id="clipPath8">
      <path
         d="M 0,0 H 362.835 V 600.945 H 0 Z"
         transform="translate(-226.7717,-541.9233)"
         id="path8" />
    </clipPath>
    <clipPath
       clipPathUnits="userSpaceOnUse"
       id="clipPath9">
      <path
         d="M 0,0 H 362.835 V 600.945 H 0 Z"
         transform="translate(-226.7717,-36.677202)"
         id="path9" />
    </clipPath>
    <clipPath
       clipPathUnits="userSpaceOnUse"
       id="clipPath10">
      <path
         d="M 0,0 H 362.835 V 600.945 H 0 Z"
         transform="translate(-136.0629,-487.5588)"
         id="path10" />
    </clipPath>
    <clipPath
       clipPathUnits="userSpaceOnUse"
       id="clipPath11">
      <path
         d="M 0,600.945 H 362.835 V 0 H 0 Z"
         transform="translate(-136.063,-589.6063)"
         id="path11" />
    </clipPath>
    <clipPath
       clipPathUnits="userSpaceOnUse"
       id="clipPath12">
      <path
         d="M 0,0 H 362.835 V 600.945 H 0 Z"
         transform="matrix(0.43408,0,0,-0.43408,-2.9426667,258.876)"
         id="path12" />
    </clipPath>
    <clipPath
       clipPathUnits="userSpaceOnUse"
       id="clipPath13">
      <path
         d="M 0,0 H 362.835 V 600.945 H 0 Z"
         transform="translate(-136.0629,-22.677295)"
         id="path13" />
    </clipPath>
    <clipPath
       clipPathUnits="userSpaceOnUse"
       id="clipPath14">
      <path
         d="M 0,0 H 362.835 V 600.945 H 0 Z"
         transform="translate(-136.063,-306.14179)"
         id="path14" />
    </clipPath>
    <clipPath
       clipPathUnits="userSpaceOnUse"
       id="clipPath15">
      <path
         d="M 0,0 H 362.835 V 600.945 H 0 Z"
         transform="translate(-11.3382,-487.5588)"
         id="path15" />
    </clipPath>
    <clipPath
       clipPathUnits="userSpaceOnUse"
       id="clipPath16">
      <path
         d="M 0,600.945 H 362.835 V 0 H 0 Z"
         transform="translate(-136.063,-487.5591)"
         id="path16" />
    </clipPath>
    <clipPath
       clipPathUnits="userSpaceOnUse"
       id="clipPath17">
      <path
         d="M 0,0 H 362.835 V 600.945 H 0 Z"
         transform="matrix(0.43408,0,0,-0.43408,-2.9426667,258.876)"
         id="path17" />
    </clipPath>
    <clipPath
       clipPathUnits="userSpaceOnUse"
       id="clipPath18">
      <path
         d="M 0,0 H 362.835 V 600.945 H 0 Z"
         transform="translate(-11.3382,-306.14131)"
         id="path18" />
    </clipPath>
    <clipPath
       clipPathUnits="userSpaceOnUse"
       id="clipPath19">
      <path
         d="M 0,600.945 H 362.835 V 0 H 0 Z"
         transform="translate(-136.063,-306.14179)"
         id="path19" />
    </clipPath>
    <clipPath
       clipPathUnits="userSpaceOnUse"
       id="clipPath20">
      <path
         d="M 0,0 H 362.835 V 600.945 H 0 Z"
         transform="matrix(0.43408,0,0,-0.43408,-2.9426667,258.876)"
         id="path20" />
    </clipPath>
    <clipPath
       clipPathUnits="userSpaceOnUse"
       id="clipPath21">
      <path
         d="M 0,0 H 362.835 V 600.945 H 0 Z"
         transform="translate(-11.3382,-396.8505)"
         id="path21" />
    </clipPath>
    <clipPath
       clipPathUnits="userSpaceOnUse"
       id="clipPath22">
      <path
         d="M 0,600.945 H 362.835 V 0 H 0 Z"
         transform="translate(-11.3386,-396.8504)"
         id="path22" />
    </clipPath>
    <clipPath
       clipPathUnits="userSpaceOnUse"
       id="clipPath23">
      <path
         d="M 0,0 H 362.835 V 600.945 H 0 Z"
         transform="matrix(0.43408,0,0,-0.43408,-2.9426667,258.876)"
         id="path23" />
    </clipPath>
    <clipPath
       clipPathUnits="userSpaceOnUse"
       id="clipPath24">
      <path
         d="M 0,0 H 362.835 V 600.945 H 0 Z"
         transform="translate(-58.982,-396.8505)"
         id="path24" />
    </clipPath>
    <clipPath
       clipPathUnits="userSpaceOnUse"
       id="clipPath25">
      <path
         d="M 0,0 H 362.835 V 600.945 H 0 Z"
         transform="translate(-122.0632,-396.8507)"
         id="path25" />
    </clipPath>
    <clipPath
       clipPathUnits="userSpaceOnUse"
       id="clipPath26">
      <path
         d="m 249.449,181.417 h 45.354 V 90.7087 h -45.354 z"
         transform="translate(-260.7874,-90.708694)"
         id="path26" />
    </clipPath>
    <clipPath
       clipPathUnits="userSpaceOnUse"
       id="clipPath27">
      <path
         d="M 0,600.945 H 362.835 V 0 H 0 Z"
         transform="matrix(0.43408,0,0,-0.43408,-2.9426667,258.876)"
         id="path27" />
    </clipPath>
    <clipPath
       clipPathUnits="userSpaceOnUse"
       id="clipPath28">
      <path
         d="M 0,0 H 362.835 V 600.945 H 0 Z"
         transform="translate(-260.7874,-90.708694)"
         id="path28" />
    </clipPath>
    <clipPath
       clipPathUnits="userSpaceOnUse"
       id="clipPath29">
      <path
         d="M 0,0 H 362.835 V 600.945 H 0 Z"
         transform="translate(-272.12601,-181.4173)"
         id="path29" />
    </clipPath>
    <clipPath
       clipPathUnits="userSpaceOnUse"
       id="clipPath30">
      <path
         d="M 0,0 H 362.835 V 600.945 H 0 Z"
         transform="translate(-195.5084,-453.2516)"
         id="path30" />
    </clipPath>
    <clipPath
       clipPathUnits="userSpaceOnUse"
       id="clipPath31">
      <path
         d="M 0,0 H 362.835 V 600.945 H 0 Z"
         transform="translate(-280.13391,-432.467)"
         id="path31" />
    </clipPath>
    <clipPath
       clipPathUnits="userSpaceOnUse"
       id="clipPath32">
      <path
         d="M 0,0 H 362.835 V 600.945 H 0 Z"
         transform="translate(-176.2257,-435.9198)"
         id="path32" />
    </clipPath>
    <clipPath
       clipPathUnits="userSpaceOnUse"
       id="clipPath33">
      <path
         d="M 0,0 H 362.835 V 600.945 H 0 Z"
         transform="translate(-183.675,-412.6274)"
         id="path33" />
    </clipPath>
    <clipPath
       clipPathUnits="userSpaceOnUse"
       id="clipPath34">
      <path
         d="M 0,0 H 362.835 V 600.945 H 0 Z"
         transform="translate(-270.9075,-139.8729)"
         id="path34" />
    </clipPath>
    <clipPath
       clipPathUnits="userSpaceOnUse"
       id="clipPath35">
      <path
         d="M 0,0 H 362.835 V 600.945 H 0 Z"
         transform="translate(-124.0829,-455.4734)"
         id="path35" />
    </clipPath>
    <clipPath
       clipPathUnits="userSpaceOnUse"
       id="clipPath36">
      <path
         d="M 0,0 H 362.835 V 600.945 H 0 Z"
         transform="translate(-122.8133,-438.3756)"
         id="path36" />
    </clipPath>
    <clipPath
       clipPathUnits="userSpaceOnUse"
       id="clipPath37">
      <path
         d="M 0,0 H 362.835 V 600.945 H 0 Z"
         transform="translate(-176.2257,-435.9198)"
         id="path37" />
    </clipPath>
    <clipPath
       clipPathUnits="userSpaceOnUse"
       id="clipPath38">
      <path
         d="M 0,0 H 362.835 V 600.945 H 0 Z"
         transform="translate(-209.4959,-477.7767)"
         id="path38" />
    </clipPath>
    <clipPath
       clipPathUnits="userSpaceOnUse"
       id="clipPath39">
      <path
         d="M 0,0 H 362.835 V 600.945 H 0 Z"
         transform="translate(-272.12601,-136.06301)"
         id="path39" />
    </clipPath>
    <clipPath
       clipPathUnits="userSpaceOnUse"
       id="clipPath40">
      <path
         d="M 0,0 H 362.835 V 600.945 H 0 Z"
         transform="translate(-288.5809,-186.9369)"
         id="path40" />
    </clipPath>
    <clipPath
       clipPathUnits="userSpaceOnUse"
       id="clipPath41">
      <path
         d="M 0,0 H 362.835 V 600.945 H 0 Z"
         transform="translate(-272.12601,-136.06301)"
         id="path41" />
    </clipPath>
    <clipPath
       clipPathUnits="userSpaceOnUse"
       id="clipPath42">
      <path
         d="M 0,0 H 362.835 V 600.945 H 0 Z"
         transform="translate(-322.99981,-119.60809)"
         id="path42" />
    </clipPath>
    <clipPath
       clipPathUnits="userSpaceOnUse"
       id="clipPath43">
      <path
         d="M 0,0 H 362.834 V 600.944 H 0 Z"
         transform="matrix(0.43408,0,0,-0.43408,-2.9426667,258.876)"
         id="path43" />
    </clipPath>
    <clipPath
       clipPathUnits="userSpaceOnUse"
       id="clipPath44">
      <path
         d="M 0,0 H 612 V 792 H 0 Z"
         transform="matrix(1.3333333,0,0,-1.3333333,-156,658.66667)"
         id="path44" />
    </clipPath>
  </defs>
  <sodipodi:namedview
     id="namedview1"
     pagecolor="#ffffff"
     bordercolor="#000000"
     borderopacity="0.25"
     inkscape:showpageshadow="2"
     inkscape:pageopacity="0.0"
     inkscape:pagecheckerboard="0"
     inkscape:deskcolor="#d1d1d1">
    <inkscape:page
       x="0"
       y="0"
       inkscape:label="1"
       id="page1"
       width="150.66667"
       height="252"
       margin="0"
       bleed="0" />
  </sodipodi:namedview>
  <g
     id="g1"
     inkscape:groupmode="layer"
     inkscape:label="1">
    <g
       id="g81">
      <g
         clip-path="url(#clipPath44)"
         id="g80">
        <g
           clip-path="url(#clipPath43)"
           id="g79">
          <path
             d="m 0,0 v -566.93 h -181.42 v 283.46 h -124.72 v 181.42 h 124.72 V 0 Z"
             style="fill:#e6e6e6;fill-opacity:1;fill-rule:nonzero;stroke:none"
             transform="matrix(0.43408,0,0,-0.43408,134.86875,2.9388725)"
             clip-path="url(#clipPath1)"
             id="path45" />
          <path
             d="M 0,0 V 566.929 Z"
             style="fill:#ffffff;fill-opacity:1;fill-rule:nonzero;stroke:none"
             transform="matrix(0.43408,0,0,-0.43408,134.86923,249.03224)"
             clip-path="url(#clipPath2)"
             id="path46" />
          <g
             clip-path="url(#clipPath4)"
             id="g47">
            <path
               d="M 0,0 V -566.929"
               style="fill:none;stroke:#7f7f7f;stroke-width:9;stroke-linecap:round;stroke-linejoin:round;stroke-miterlimit:10;stroke-dasharray:none;stroke-opacity:1"
               transform="matrix(0.43408,0,0,-0.43408,134.86918,2.9396973)"
               clip-path="url(#clipPath3)"
               id="path47" />
          </g>
          <path
             d="M 0,0 V 566.929 Z"
             style="fill:#ffffff;fill-opacity:1;fill-rule:nonzero;stroke:none"
             transform="matrix(0.43408,0,0,-0.43408,95.494567,249.03224)"
             clip-path="url(#clipPath5)"
             id="path48" />
          <g
             clip-path="url(#clipPath7)"
             id="g49">
            <path
               d="M 0,0 V -14"
               style="fill:none;stroke:#7f7f7f;stroke-width:9;stroke-linecap:round;stroke-linejoin:round;stroke-miterlimit:4;stroke-dasharray:none;stroke-opacity:1"
               transform="matrix(0.43408,0,0,-0.43408,95.494393,2.9396973)"
               clip-path="url(#clipPath6)"
               id="path49" />
          </g>
          <path
             d="M 0,0 V -488.405"
             style="fill:none;stroke:#7f7f7f;stroke-width:9;stroke-linecap:round;stroke-linejoin:round;stroke-miterlimit:4;stroke-dasharray:29.473, 33.683;stroke-dashoffset:0;stroke-opacity:1"
             transform="matrix(0.43408,0,0,-0.43408,95.494393,23.637934)"
             clip-path="url(#clipPath8)"
             id="path50" />
          <path
             d="M 0,0 V -14"
             style="fill:none;stroke:#7f7f7f;stroke-width:9;stroke-linecap:round;stroke-linejoin:round;stroke-miterlimit:4;stroke-dasharray:none;stroke-opacity:1"
             transform="matrix(0.43408,0,0,-0.43408,95.494393,242.95516)"
             clip-path="url(#clipPath9)"
             id="path51" />
          <path
             d="M 0,0 V 102.047 Z"
             style="fill:#ffffff;fill-opacity:1;fill-rule:nonzero;stroke:none"
             transform="matrix(0.43408,0,0,-0.43408,56.119517,47.236476)"
             clip-path="url(#clipPath10)"
             id="path52" />
          <g
             clip-path="url(#clipPath12)"
             id="g53">
            <path
               d="M 0,0 V -102.047"
               style="fill:none;stroke:#7f7f7f;stroke-width:9;stroke-linecap:round;stroke-linejoin:round;stroke-miterlimit:10;stroke-dasharray:none;stroke-opacity:1"
               transform="matrix(0.43408,0,0,-0.43408,56.11956,2.9396973)"
               clip-path="url(#clipPath11)"
               id="path53" />
          </g>
          <path
             d="M 0,0 V 283.464 Z"
             style="fill:#ffffff;fill-opacity:1;fill-rule:nonzero;stroke:none"
             transform="matrix(0.43408,0,0,-0.43408,56.119517,249.03224)"
             clip-path="url(#clipPath13)"
             id="path54" />
          <path
             d="M 0,0 V -283.465"
             style="fill:none;stroke:#7f7f7f;stroke-width:9;stroke-linecap:round;stroke-linejoin:round;stroke-miterlimit:10;stroke-dasharray:none;stroke-opacity:1"
             transform="matrix(0.43408,0,0,-0.43408,56.11956,125.98597)"
             clip-path="url(#clipPath14)"
             id="path55" />
          <path
             d="M 0,0 H 124.725 Z"
             style="fill:#ffffff;fill-opacity:1;fill-rule:nonzero;stroke:none"
             transform="matrix(0.43408,0,0,-0.43408,1.9790192,47.236476)"
             clip-path="url(#clipPath15)"
             id="path56" />
          <g
             clip-path="url(#clipPath17)"
             id="g57">
            <path
               d="M 0,0 H -124.724"
               style="fill:none;stroke:#7f7f7f;stroke-width:9;stroke-linecap:round;stroke-linejoin:round;stroke-miterlimit:10;stroke-dasharray:none;stroke-opacity:1"
               transform="matrix(0.43408,0,0,-0.43408,56.11956,47.236346)"
               clip-path="url(#clipPath16)"
               id="path57" />
          </g>
          <path
             d="M 0,0 H 124.725 Z"
             style="fill:#ffffff;fill-opacity:1;fill-rule:nonzero;stroke:none"
             transform="matrix(0.43408,0,0,-0.43408,1.9790192,125.98618)"
             clip-path="url(#clipPath18)"
             id="path58" />
          <g
             clip-path="url(#clipPath20)"
             id="g59">
            <path
               d="M 0,0 H -124.724"
               style="fill:none;stroke:#7f7f7f;stroke-width:9;stroke-linecap:round;stroke-linejoin:round;stroke-miterlimit:10;stroke-dasharray:none;stroke-opacity:1"
               transform="matrix(0.43408,0,0,-0.43408,56.11956,125.98597)"
               clip-path="url(#clipPath19)"
               id="path59" />
          </g>
          <path
             d="M 0,0 H 124.725 Z"
             style="fill:#ffffff;fill-opacity:1;fill-rule:nonzero;stroke:none"
             transform="matrix(0.43408,0,0,-0.43408,1.9790192,86.611135)"
             clip-path="url(#clipPath21)"
             id="path60" />
          <g
             clip-path="url(#clipPath23)"
             id="g61">
            <path
               d="M 0,0 H 14"
               style="fill:none;stroke:#7f7f7f;stroke-width:9;stroke-linecap:round;stroke-linejoin:round;stroke-miterlimit:4;stroke-dasharray:none;stroke-opacity:1"
               transform="matrix(0.43408,0,0,-0.43408,1.9791928,86.611178)"
               clip-path="url(#clipPath22)"
               id="path61" />
          </g>
          <path
             d="M 0,0 H 46.26"
             style="fill:none;stroke:#7f7f7f;stroke-width:9;stroke-linecap:round;stroke-linejoin:round;stroke-miterlimit:4;stroke-dasharray:29.438, 33.643;stroke-dashoffset:0;stroke-opacity:1"
             transform="matrix(0.43408,0,0,-0.43408,22.66024,86.611135)"
             clip-path="url(#clipPath24)"
             id="path62" />
          <path
             d="M 0,0 H 14"
             style="fill:none;stroke:#7f7f7f;stroke-width:9;stroke-linecap:round;stroke-linejoin:round;stroke-miterlimit:4;stroke-dasharray:none;stroke-opacity:1"
             transform="matrix(0.43408,0,0,-0.43408,50.042527,86.611048)"
             clip-path="url(#clipPath25)"
             id="path63" />
          <g
             clip-path="url(#clipPath27)"
             id="g65">
            <g
               opacity="0.5"
               id="g64">
              <path
                 d="m 0,0 h 22.677 c 6.262,0 11.339,5.076 11.339,11.339 V 79.37 c 0,6.262 -5.077,11.339 -11.339,11.339 H 0 c -6.262,0 -11.339,-5.077 -11.339,-11.339 V 11.339 C -11.339,5.076 -6.262,0 0,0"
                 style="fill:#2ca02c;fill-opacity:1;fill-rule:nonzero;stroke:none"
                 transform="matrix(0.43408,0,0,-0.43408,110.25993,219.50117)"
                 clip-path="url(#clipPath26)"
                 id="path64" />
            </g>
          </g>
          <path
             d="m 0,0 h 22.677 c 6.262,0 11.339,5.076 11.339,11.339 V 79.37 c 0,6.262 -5.077,11.339 -11.339,11.339 H 0 c -6.262,0 -11.339,-5.077 -11.339,-11.339 V 11.339 C -11.339,5.076 -6.262,0 0,0 Z"
             style="fill:none;stroke:#2ca02c;stroke-width:9;stroke-linecap:round;stroke-linejoin:round;stroke-miterlimit:10;stroke-dasharray:none;stroke-opacity:1"
             transform="matrix(0.43408,0,0,-0.43408,110.25993,219.50117)"
             clip-path="url(#clipPath28)"
             id="path65" />
          <path
             d="m 0,0 v 147.942 c 0,51.293 -56.693,92.328 -90.709,102.587 l -0.006,0.002"
             style="fill:none;stroke:#2ca02c;stroke-width:9;stroke-linecap:round;stroke-linejoin:round;stroke-miterlimit:4;stroke-dasharray:none;stroke-opacity:1"
             transform="matrix(0.43408,0,0,-0.43408,115.18179,180.12638)"
             clip-path="url(#clipPath29)"
             id="path66" />
          <path
             d="M 0,0 -48.107,-11.047 -14.491,-47.19 Z"
             style="fill:#2ca02c;fill-opacity:1;fill-rule:nonzero;stroke:none"
             transform="matrix(0.43408,0,0,-0.43408,81.92362,62.128545)"
             clip-path="url(#clipPath30)"
             id="path67" />
          <path
             d="m 0,0 c 0,-55.475 -44.943,-100.446 -100.382,-100.446 -55.439,0 -100.382,44.971 -100.382,100.446 0,55.475 44.943,100.446 100.382,100.446 C -44.943,100.446 0,55.475 0,0 Z"
             style="fill:none;stroke:#ff7f0e;stroke-width:7;stroke-linecap:round;stroke-linejoin:round;stroke-miterlimit:4;stroke-dasharray:7.838, 19.595;stroke-dashoffset:0;stroke-opacity:1"
             transform="matrix(0.43408,0,0,-0.43408,118.65786,71.150725)"
             clip-path="url(#clipPath31)"
             id="path68" />
          <path
             d="M 0,0 1.218,-3.81"
             style="fill:none;stroke:#1f77b4;stroke-width:8;stroke-linecap:round;stroke-linejoin:round;stroke-miterlimit:4;stroke-dasharray:none;stroke-opacity:1"
             transform="matrix(0.43408,0,0,-0.43408,73.553385,69.651933)"
             clip-path="url(#clipPath32)"
             id="path69" />
          <path
             d="M 0,0 84.117,-263.013"
             style="fill:none;stroke:#1f77b4;stroke-width:8;stroke-linecap:round;stroke-linejoin:round;stroke-miterlimit:4;stroke-dasharray:8.182, 20.455;stroke-dashoffset:0;stroke-opacity:1"
             transform="matrix(0.43408,0,0,-0.43408,76.786977,79.762698)"
             clip-path="url(#clipPath33)"
             id="path70" />
          <path
             d="M 0,0 1.219,-3.81"
             style="fill:none;stroke:#1f77b4;stroke-width:8;stroke-linecap:round;stroke-linejoin:round;stroke-miterlimit:4;stroke-dasharray:none;stroke-opacity:1"
             transform="matrix(0.43408,0,0,-0.43408,114.65286,198.15997)"
             clip-path="url(#clipPath34)"
             id="path71" />
          <path
             d="M 0,0 52.143,-19.554"
             style="fill:none;stroke:#ff7f0e;stroke-width:6;stroke-linecap:round;stroke-linejoin:round;stroke-miterlimit:4;stroke-dasharray:none;stroke-opacity:1"
             transform="matrix(0.43408,0,0,-0.43408,50.919239,61.164107)"
             clip-path="url(#clipPath35)"
             id="path72" />
          <path
             d="m 0,0 -20.904,25.413 32.459,5.401 z"
             style="fill:#ff7f0e;fill-opacity:1;fill-rule:nonzero;stroke:none"
             transform="matrix(0.43408,0,0,-0.43408,50.368131,68.58592)"
             clip-path="url(#clipPath36)"
             id="path73" />
          <path
             d="M 0,0 19.554,52.143"
             style="fill:none;stroke:#ff7f0e;stroke-width:6;stroke-linecap:round;stroke-linejoin:round;stroke-miterlimit:4;stroke-dasharray:none;stroke-opacity:1"
             transform="matrix(0.43408,0,0,-0.43408,73.553385,69.651933)"
             clip-path="url(#clipPath37)"
             id="path74" />
          <path
             d="M 0,0 -5.401,32.46 -30.814,11.555 Z"
             style="fill:#ff7f0e;fill-opacity:1;fill-rule:nonzero;stroke:none"
             transform="matrix(0.43408,0,0,-0.43408,87.995314,51.48269)"
             clip-path="url(#clipPath38)"
             id="path75" />
          <path
             d="M 0,0 V 55.688"
             style="fill:none;stroke:#000000;stroke-width:6;stroke-linecap:round;stroke-linejoin:round;stroke-miterlimit:4;stroke-dasharray:none;stroke-opacity:1"
             transform="matrix(0.43408,0,0,-0.43408,115.18179,199.81377)"
             clip-path="url(#clipPath39)"
             id="path76" />
          <path
             d="M 0,0 -16.455,28.496 -32.91,0 Z"
             style="fill:#000000;fill-opacity:1;fill-rule:nonzero;stroke:none"
             transform="matrix(0.43408,0,0,-0.43408,122.32453,177.73043)"
             clip-path="url(#clipPath40)"
             id="path77" />
          <path
             d="M 0,0 H 55.689"
             style="fill:none;stroke:#000000;stroke-width:6;stroke-linecap:round;stroke-linejoin:round;stroke-miterlimit:4;stroke-dasharray:none;stroke-opacity:1"
             transform="matrix(0.43408,0,0,-0.43408,115.18179,199.81377)"
             clip-path="url(#clipPath41)"
             id="path78" />
          <path
             d="M 0,0 28.496,16.455 0,32.91 Z"
             style="fill:#000000;fill-opacity:1;fill-rule:nonzero;stroke:none"
             transform="matrix(0.43408,0,0,-0.43408,137.26509,206.95652)"
             clip-path="url(#clipPath42)"
             id="path79" />
        </g>
      </g>
    </g>
  </g>
</svg>
