<?xml version="1.0" encoding="UTF-8" standalone="no"?>
<!-- Created with Inkscape (http://www.inkscape.org/) -->

<svg
   version="1.1"
   id="svg1"
   width="314.66666"
   height="210.66667"
   viewBox="0 0 314.66666 210.66667"
   sodipodi:docname="page-10_cropped.pdf"
   xmlns:inkscape="http://www.inkscape.org/namespaces/inkscape"
   xmlns:sodipodi="http://sodipodi.sourceforge.net/DTD/sodipodi-0.dtd"
   xmlns="http://www.w3.org/2000/svg"
   xmlns:svg="http://www.w3.org/2000/svg">
  <defs
     id="defs1">
    <clipPath
       clipPathUnits="userSpaceOnUse"
       id="clipPath1">
      <path
         d="M 0,0 H 555.591 V 396.85 H 0 Z"
         id="path1" />
    </clipPath>
    <clipPath
       clipPathUnits="userSpaceOnUse"
       id="clipPath2">
      <path
         d="M 0,0 H 555.591 V 396.85 H 0 Z"
         id="path2" />
    </clipPath>
    <clipPath
       clipPathUnits="userSpaceOnUse"
       id="clipPath3">
      <path
         d="M 0,0 H 555.591 V 396.85 H 0 Z"
         id="path3" />
    </clipPath>
    <clipPath
       clipPathUnits="userSpaceOnUse"
       id="clipPath4">
      <path
         d="M 0,0 H 555.591 V 396.85 H 0 Z"
         id="path4" />
    </clipPath>
    <clipPath
       clipPathUnits="userSpaceOnUse"
       id="clipPath5">
      <path
         d="M 0,0 H 555.591 V 396.85 H 0 Z"
         transform="translate(-283.46459,-385.5118)"
         id="path5" />
    </clipPath>
    <clipPath
       clipPathUnits="userSpaceOnUse"
       id="clipPath6">
      <path
         d="M 0,396.85 H 555.591 V 0 H 0 Z"
         transform="translate(-291.9686,-69.531707)"
         id="path6" />
    </clipPath>
    <clipPath
       clipPathUnits="userSpaceOnUse"
       id="clipPath7">
      <path
         d="M 0,0 H 555.591 V 396.85 H 0 Z"
         transform="matrix(0.56696,0,0,-0.56696,-0.66666667,219.31467)"
         id="path7" />
    </clipPath>
    <clipPath
       clipPathUnits="userSpaceOnUse"
       id="clipPath8">
      <path
         d="M 0,0 H 555.591 V 396.85 H 0 Z"
         transform="translate(-547.0866,-102.0473)"
         id="path8" />
    </clipPath>
    <clipPath
       clipPathUnits="userSpaceOnUse"
       id="clipPath9">
      <path
         d="M 0,0 H 555.591 V 396.85 H 0 Z"
         transform="translate(-291.9686,-171.57869)"
         id="path9" />
    </clipPath>
    <clipPath
       clipPathUnits="userSpaceOnUse"
       id="clipPath10">
      <path
         d="M 0,0 H 555.591 V 396.85 H 0 Z"
         transform="translate(-547.0866,-204.0945)"
         id="path10" />
    </clipPath>
    <clipPath
       clipPathUnits="userSpaceOnUse"
       id="clipPath11">
      <path
         d="m 170.118,361.188 v 0 0 z"
         transform="translate(-170.1181,-361.1884)"
         id="path11" />
    </clipPath>
    <clipPath
       clipPathUnits="userSpaceOnUse"
       id="clipPath12">
      <path
         d="M 0,0 H 555.591 V 396.85 H 0 Z"
         transform="matrix(0.56696,0,0,-0.56696,-0.66666667,219.31467)"
         id="path12" />
    </clipPath>
    <clipPath
       clipPathUnits="userSpaceOnUse"
       id="clipPath13">
      <path
         d="M 0,0 H 555.591 V 396.85 H 0 Z"
         transform="matrix(0.56696,0,0,-0.56696,-0.66666667,219.31467)"
         id="path13" />
    </clipPath>
    <clipPath
       clipPathUnits="userSpaceOnUse"
       id="clipPath14">
      <path
         d="M 0,0 H 555.591 V 396.85 H 0 Z"
         transform="translate(-151.96,-370.4046)"
         id="path14" />
    </clipPath>
    <clipPath
       clipPathUnits="userSpaceOnUse"
       id="clipPath15">
      <path
         d="M 0,0 H 555.591 V 396.85 H 0 Z"
         id="path15" />
    </clipPath>
    <clipPath
       clipPathUnits="userSpaceOnUse"
       id="clipPath16">
      <path
         d="M 0,0 H 555.591 V 396.85 H 0 Z"
         transform="translate(-165.3835,-365.1281)"
         id="path16" />
    </clipPath>
    <clipPath
       clipPathUnits="userSpaceOnUse"
       id="clipPath17">
      <path
         d="M 0,0 H 555.591 V 396.85 H 0 Z"
         transform="translate(-169.7366,-364.2719)"
         id="path17" />
    </clipPath>
    <clipPath
       clipPathUnits="userSpaceOnUse"
       id="clipPath18">
      <path
         d="M 0,0 H 555.591 V 396.85 H 0 Z"
         transform="translate(-182.7913,-360.9656)"
         id="path18" />
    </clipPath>
    <clipPath
       clipPathUnits="userSpaceOnUse"
       id="clipPath19">
      <path
         d="M 0,0 H 555.591 V 396.85 H 0 Z"
         transform="translate(-185.97879,-360.8453)"
         id="path19" />
    </clipPath>
    <clipPath
       clipPathUnits="userSpaceOnUse"
       id="clipPath20">
      <path
         d="M 0,0 H 555.591 V 396.85 H 0 Z"
         transform="translate(-198.5334,-365.4265)"
         id="path20" />
    </clipPath>
    <clipPath
       clipPathUnits="userSpaceOnUse"
       id="clipPath21">
      <path
         d="m 419.331,360.988 v 0 0 z"
         transform="translate(-419.33109,-360.9882)"
         id="path21" />
    </clipPath>
    <clipPath
       clipPathUnits="userSpaceOnUse"
       id="clipPath22">
      <path
         d="M 0,0 H 555.591 V 396.85 H 0 Z"
         transform="matrix(0.56696,0,0,-0.56696,-0.66666667,219.31467)"
         id="path22" />
    </clipPath>
    <clipPath
       clipPathUnits="userSpaceOnUse"
       id="clipPath23">
      <path
         d="M 0,0 H 555.591 V 396.85 H 0 Z"
         transform="matrix(0.56696,0,0,-0.56696,-0.66666667,219.31467)"
         id="path23" />
    </clipPath>
    <clipPath
       clipPathUnits="userSpaceOnUse"
       id="clipPath24">
      <path
         d="M 0,0 H 555.591 V 396.85 H 0 Z"
         transform="translate(-347.123,-362.7476)"
         id="path24" />
    </clipPath>
    <clipPath
       clipPathUnits="userSpaceOnUse"
       id="clipPath25">
      <path
         d="M 0,0 H 555.591 V 396.85 H 0 Z"
         transform="translate(-356.92761,-365.3164)"
         id="path25" />
    </clipPath>
    <clipPath
       clipPathUnits="userSpaceOnUse"
       id="clipPath26">
      <path
         d="M 0,0 H 555.591 V 396.85 H 0 Z"
         transform="translate(-362.0495,-364.1617)"
         id="path26" />
    </clipPath>
    <clipPath
       clipPathUnits="userSpaceOnUse"
       id="clipPath27">
      <path
         d="M 0,0 H 555.591 V 396.85 H 0 Z"
         transform="translate(-374.3276,-365.3164)"
         id="path27" />
    </clipPath>
    <clipPath
       clipPathUnits="userSpaceOnUse"
       id="clipPath28">
      <path
         d="M 0,0 H 555.591 V 396.85 H 0 Z"
         transform="translate(-379.09169,-360.7351)"
         id="path28" />
    </clipPath>
    <clipPath
       clipPathUnits="userSpaceOnUse"
       id="clipPath29">
      <path
         d="M 0,0 H 555.591 V 396.85 H 0 Z"
         transform="translate(-391.0089,-360.8351)"
         id="path29" />
    </clipPath>
    <clipPath
       clipPathUnits="userSpaceOnUse"
       id="clipPath30">
      <path
         d="M 0,0 H 555.591 V 396.85 H 0 Z"
         transform="translate(-403.76201,-371.4101)"
         id="path30" />
    </clipPath>
    <clipPath
       clipPathUnits="userSpaceOnUse"
       id="clipPath31">
      <path
         d="M 0,0 H 555.591 V 396.85 H 0 Z"
         transform="translate(-416.2807,-363.0258)"
         id="path31" />
    </clipPath>
    <clipPath
       clipPathUnits="userSpaceOnUse"
       id="clipPath32">
      <path
         d="M 0,0 H 555.591 V 396.85 H 0 Z"
         transform="translate(-426.8464,-365.3164)"
         id="path32" />
    </clipPath>
    <clipPath
       clipPathUnits="userSpaceOnUse"
       id="clipPath33">
      <path
         d="M 0,0 H 555.591 V 396.85 H 0 Z"
         transform="translate(-435.11041,-362.2289)"
         id="path33" />
    </clipPath>
    <clipPath
       clipPathUnits="userSpaceOnUse"
       id="clipPath34">
      <path
         d="M 0,0 H 555.591 V 396.85 H 0 Z"
         id="path34" />
    </clipPath>
    <clipPath
       clipPathUnits="userSpaceOnUse"
       id="clipPath35">
      <path
         d="M 0,0 H 555.591 V 396.85 H 0 Z"
         transform="translate(-450.1281,-365.3164)"
         id="path35" />
    </clipPath>
    <clipPath
       clipPathUnits="userSpaceOnUse"
       id="clipPath36">
      <path
         d="M 0,0 H 555.591 V 396.85 H 0 Z"
         transform="translate(-459.7101,-362.2289)"
         id="path36" />
    </clipPath>
    <clipPath
       clipPathUnits="userSpaceOnUse"
       id="clipPath37">
      <path
         d="M 0,0 H 555.591 V 396.85 H 0 Z"
         transform="translate(-464.8491,-364.1617)"
         id="path37" />
    </clipPath>
    <clipPath
       clipPathUnits="userSpaceOnUse"
       id="clipPath38">
      <path
         d="M 0,0 H 555.591 V 396.85 H 0 Z"
         id="path38" />
    </clipPath>
    <clipPath
       clipPathUnits="userSpaceOnUse"
       id="clipPath39">
      <path
         d="M 0,0 H 555.591 V 396.85 H 0 Z"
         transform="translate(-482.7041,-360.8554)"
         id="path39" />
    </clipPath>
    <clipPath
       clipPathUnits="userSpaceOnUse"
       id="clipPath40">
      <path
         d="M 0,0 H 555.591 V 396.85 H 0 Z"
         transform="translate(-491.9281,-362.4086)"
         id="path40" />
    </clipPath>
    <clipPath
       clipPathUnits="userSpaceOnUse"
       id="clipPath41">
      <path
         d="M 0,0 H 555.591 V 396.85 H 0 Z"
         transform="translate(-495.8951,-351.4961)"
         id="path41" />
    </clipPath>
    <clipPath
       clipPathUnits="userSpaceOnUse"
       id="clipPath42">
      <path
         d="M 0,0 H 555.591 V 396.85 H 0 Z"
         transform="translate(-192.7559,-340.1575)"
         id="path42" />
    </clipPath>
    <clipPath
       clipPathUnits="userSpaceOnUse"
       id="clipPath43">
      <path
         d="M 0,0 H 555.591 V 396.85 H 0 Z"
         transform="translate(-238.1102,-340.1575)"
         id="path43" />
    </clipPath>
    <clipPath
       clipPathUnits="userSpaceOnUse"
       id="clipPath44">
      <path
         d="M 0,0 H 555.591 V 396.85 H 0 Z"
         transform="translate(-110.5511,-228.2715)"
         id="path44" />
    </clipPath>
    <clipPath
       clipPathUnits="userSpaceOnUse"
       id="clipPath45">
      <path
         d="M 0,0 H 555.591 V 396.85 H 0 Z"
         transform="translate(-229.6063,-260.7874)"
         id="path45" />
    </clipPath>
    <clipPath
       clipPathUnits="userSpaceOnUse"
       id="clipPath46">
      <path
         d="M 0,0 H 555.591 V 396.85 H 0 Z"
         transform="translate(-155.9056,-171.57869)"
         id="path46" />
    </clipPath>
    <clipPath
       clipPathUnits="userSpaceOnUse"
       id="clipPath47">
      <path
         d="M 0,0 H 555.591 V 396.85 H 0 Z"
         transform="translate(-274.9607,-204.0945)"
         id="path47" />
    </clipPath>
    <clipPath
       clipPathUnits="userSpaceOnUse"
       id="clipPath48">
      <path
         d="M 0,0 H 555.591 V 396.85 H 0 Z"
         transform="translate(-65.196601,-69.531707)"
         id="path48" />
    </clipPath>
    <clipPath
       clipPathUnits="userSpaceOnUse"
       id="clipPath49">
      <path
         d="M 0,0 H 555.591 V 396.85 H 0 Z"
         transform="translate(-274.9607,-102.0473)"
         id="path49" />
    </clipPath>
    <clipPath
       clipPathUnits="userSpaceOnUse"
       id="clipPath50">
      <path
         d="M 0,0 H 555.591 V 396.85 H 0 Z"
         transform="translate(-201.25961,-284.9644)"
         id="path50" />
    </clipPath>
    <clipPath
       clipPathUnits="userSpaceOnUse"
       id="clipPath51">
      <path
         d="M 0,0 H 555.591 V 396.85 H 0 Z"
         transform="translate(-456.37799,-317.4803)"
         id="path51" />
    </clipPath>
    <clipPath
       clipPathUnits="userSpaceOnUse"
       id="clipPath52">
      <path
         d="m 128.585,114.851 v 0 0 z"
         transform="translate(-128.5852,-114.8506)"
         id="path52" />
    </clipPath>
    <clipPath
       clipPathUnits="userSpaceOnUse"
       id="clipPath53">
      <path
         d="M 0,0 H 555.591 V 396.85 H 0 Z"
         transform="matrix(0.56696,0,0,-0.56696,-0.66666667,219.31467)"
         id="path53" />
    </clipPath>
    <clipPath
       clipPathUnits="userSpaceOnUse"
       id="clipPath54">
      <path
         d="m 8.06755,89.6877 h 1.2e-4 v -1e-4 h -1.2e-4 z"
         transform="translate(-8.0677,-89.687609)"
         id="path54" />
    </clipPath>
    <clipPath
       clipPathUnits="userSpaceOnUse"
       id="clipPath55">
      <path
         d="M 0,0 H 555.591 V 396.85 H 0 Z"
         transform="matrix(0.56696,0,0,-0.56696,-0.66666667,219.31467)"
         id="path55" />
    </clipPath>
    <clipPath
       clipPathUnits="userSpaceOnUse"
       id="clipPath56">
      <path
         d="m 2.354,45.04 h 43 v 80 h -43 z"
         transform="matrix(0.56696,0,0,-0.56696,-0.66666667,219.31467)"
         id="path56" />
    </clipPath>
    <clipPath
       clipPathUnits="userSpaceOnUse"
       id="clipPath57">
      <path
         d="m 2.354,45.04 h 43 v 80 h -43 z"
         transform="matrix(0.56696,0,0,-0.56696,-0.66666667,219.31467)"
         id="path57" />
    </clipPath>
    <clipPath
       clipPathUnits="userSpaceOnUse"
       id="clipPath58">
      <path
         d="M 0,0 H 555.591 V 396.85 H 0 Z"
         transform="translate(-9.0605,-52.350301)"
         id="path58" />
    </clipPath>
    <clipPath
       clipPathUnits="userSpaceOnUse"
       id="clipPath59">
      <path
         d="M 0,0 H 555.591 V 396.85 H 0 Z"
         transform="translate(-11.9293,-62.764404)"
         id="path59" />
    </clipPath>
    <clipPath
       clipPathUnits="userSpaceOnUse"
       id="clipPath60">
      <path
         d="M 0,0 H 555.591 V 396.85 H 0 Z"
         transform="translate(-12.1262,-73.376899)"
         id="path60" />
    </clipPath>
    <clipPath
       clipPathUnits="userSpaceOnUse"
       id="clipPath61">
      <path
         d="M 0,0 H 555.591 V 396.85 H 0 Z"
         transform="translate(-17.4465,-78.642509)"
         id="path61" />
    </clipPath>
    <clipPath
       clipPathUnits="userSpaceOnUse"
       id="clipPath62">
      <path
         d="M 0,0 H 555.591 V 396.85 H 0 Z"
         transform="translate(-9.0605,-93.950308)"
         id="path62" />
    </clipPath>
    <clipPath
       clipPathUnits="userSpaceOnUse"
       id="clipPath63">
      <path
         d="M 0,0 H 555.591 V 396.85 H 0 Z"
         transform="translate(-11.9293,-104.36439)"
         id="path63" />
    </clipPath>
    <clipPath
       clipPathUnits="userSpaceOnUse"
       id="clipPath64">
      <path
         d="M 0,0 H 555.591 V 396.85 H 0 Z"
         transform="translate(-13.6371,-116.40971)"
         id="path64" />
    </clipPath>
    <clipPath
       clipPathUnits="userSpaceOnUse"
       id="clipPath65">
      <path
         d="M 0,0 H 555.591 V 396.85 H 0 Z"
         transform="translate(-10.0012,-120.9722)"
         id="path65" />
    </clipPath>
    <clipPath
       clipPathUnits="userSpaceOnUse"
       id="clipPath66">
      <path
         d="M 0,0 H 555.591 V 396.85 H 0 Z"
         transform="translate(-29.5574,-62.776892)"
         id="path66" />
    </clipPath>
    <clipPath
       clipPathUnits="userSpaceOnUse"
       id="clipPath67">
      <path
         d="M 0,0 H 555.591 V 396.85 H 0 Z"
         transform="translate(-38.426201,-79.376899)"
         id="path67" />
    </clipPath>
    <clipPath
       clipPathUnits="userSpaceOnUse"
       id="clipPath68">
      <path
         d="M 0,0 H 555.591 V 396.85 H 0 Z"
         transform="translate(-35.3606,-88.650305)"
         id="path68" />
    </clipPath>
    <clipPath
       clipPathUnits="userSpaceOnUse"
       id="clipPath69">
      <path
         d="M 0,0 H 555.591 V 396.85 H 0 Z"
         transform="translate(-39.959,-98.604993)"
         id="path69" />
    </clipPath>
    <clipPath
       clipPathUnits="userSpaceOnUse"
       id="clipPath70">
      <path
         d="M 0,0 H 555.591 V 396.85 H 0 Z"
         transform="translate(-29.5574,-108.84251)"
         id="path70" />
    </clipPath>
    <clipPath
       clipPathUnits="userSpaceOnUse"
       id="clipPath71">
      <path
         d="m 2.854,199.28 h 42 v 89 h -42 z"
         transform="matrix(0.56696,0,0,-0.56696,-0.66666667,219.31467)"
         id="path71" />
    </clipPath>
    <clipPath
       clipPathUnits="userSpaceOnUse"
       id="clipPath72">
      <path
         d="m 2.854,199.28 h 42 v 89 h -42 z"
         transform="matrix(0.56696,0,0,-0.56696,-0.66666667,219.31467)"
         id="path72" />
    </clipPath>
    <clipPath
       clipPathUnits="userSpaceOnUse"
       id="clipPath73">
      <path
         d="M 0,0 H 555.591 V 396.85 H 0 Z"
         transform="translate(-8.5605,-206.59049)"
         id="path73" />
    </clipPath>
    <clipPath
       clipPathUnits="userSpaceOnUse"
       id="clipPath74">
      <path
         d="M 0,0 H 555.591 V 396.85 H 0 Z"
         transform="translate(-9.5012,-211.3123)"
         id="path74" />
    </clipPath>
    <clipPath
       clipPathUnits="userSpaceOnUse"
       id="clipPath75">
      <path
         d="M 0,0 H 555.591 V 396.85 H 0 Z"
         transform="translate(-13.2684,-218.817)"
         id="path75" />
    </clipPath>
    <clipPath
       clipPathUnits="userSpaceOnUse"
       id="clipPath76">
      <path
         d="M 0,0 H 555.591 V 396.85 H 0 Z"
         transform="translate(-13.159,-231.9451)"
         id="path76" />
    </clipPath>
    <clipPath
       clipPathUnits="userSpaceOnUse"
       id="clipPath77">
      <path
         d="M 0,0 H 555.591 V 396.85 H 0 Z"
         transform="translate(-11.6262,-241.417)"
         id="path77" />
    </clipPath>
    <clipPath
       clipPathUnits="userSpaceOnUse"
       id="clipPath78">
      <path
         d="M 0,0 H 555.591 V 396.85 H 0 Z"
         transform="translate(-11.4293,-258.792)"
         id="path78" />
    </clipPath>
    <clipPath
       clipPathUnits="userSpaceOnUse"
       id="clipPath79">
      <path
         d="M 0,0 H 555.591 V 396.85 H 0 Z"
         id="path79" />
    </clipPath>
    <clipPath
       clipPathUnits="userSpaceOnUse"
       id="clipPath80">
      <path
         d="M 0,0 H 555.591 V 396.85 H 0 Z"
         transform="translate(-11.4293,-275.3045)"
         id="path80" />
    </clipPath>
    <clipPath
       clipPathUnits="userSpaceOnUse"
       id="clipPath81">
      <path
         d="M 0,0 H 555.591 V 396.85 H 0 Z"
         transform="translate(-9.3918001,-284.7873)"
         id="path81" />
    </clipPath>
    <clipPath
       clipPathUnits="userSpaceOnUse"
       id="clipPath82">
      <path
         d="M 0,0 H 555.591 V 396.85 H 0 Z"
         transform="translate(-29.0574,-221.417)"
         id="path82" />
    </clipPath>
    <clipPath
       clipPathUnits="userSpaceOnUse"
       id="clipPath83">
      <path
         d="M 0,0 H 555.591 V 396.85 H 0 Z"
         transform="translate(-37.926201,-238.017)"
         id="path83" />
    </clipPath>
    <clipPath
       clipPathUnits="userSpaceOnUse"
       id="clipPath84">
      <path
         d="M 0,0 H 555.591 V 396.85 H 0 Z"
         transform="translate(-34.8606,-247.2904)"
         id="path84" />
    </clipPath>
    <clipPath
       clipPathUnits="userSpaceOnUse"
       id="clipPath85">
      <path
         d="M 0,0 H 555.591 V 396.85 H 0 Z"
         transform="translate(-39.459,-257.2451)"
         id="path85" />
    </clipPath>
    <clipPath
       clipPathUnits="userSpaceOnUse"
       id="clipPath86">
      <path
         d="M 0,0 H 555.591 V 396.85 H 0 Z"
         transform="translate(-29.0574,-267.4826)"
         id="path86" />
    </clipPath>
    <clipPath
       clipPathUnits="userSpaceOnUse"
       id="clipPath87">
      <path
         d="M 0,396.85 H 555.591 V 0 H 0 Z"
         transform="translate(-65.196601,-284.9644)"
         id="path87" />
    </clipPath>
    <clipPath
       clipPathUnits="userSpaceOnUse"
       id="clipPath88">
      <path
         d="M 0,0 H 555.591 V 396.85 H 0 Z"
         transform="matrix(0.56696,0,0,-0.56696,-0.66666667,219.31467)"
         id="path88" />
    </clipPath>
    <clipPath
       clipPathUnits="userSpaceOnUse"
       id="clipPath89">
      <path
         d="M 0,0 H 555.591 V 396.85 H 0 Z"
         transform="translate(-184.252,-317.4803)"
         id="path89" />
    </clipPath>
    <clipPath
       clipPathUnits="userSpaceOnUse"
       id="clipPath90">
      <path
         d="M 0,0 H 555.591 V 396.85 H 0 Z"
         transform="translate(-246.61409,-228.2715)"
         id="path90" />
    </clipPath>
    <clipPath
       clipPathUnits="userSpaceOnUse"
       id="clipPath91">
      <path
         d="M 0,0 H 555.591 V 396.85 H 0 Z"
         transform="translate(-501.7323,-260.7874)"
         id="path91" />
    </clipPath>
    <clipPath
       clipPathUnits="userSpaceOnUse"
       id="clipPath92">
      <path
         d="M 0,0 H 555.591 V 396.85 H 0 Z"
         transform="matrix(1,0,0,-1,56.6929,226.7715)"
         id="path92" />
    </clipPath>
    <clipPath
       clipPathUnits="userSpaceOnUse"
       id="clipPath93">
      <path
         d="m 127.433,114.347 v 0 0 z"
         transform="translate(-127.4332,-114.3466)"
         id="path93" />
    </clipPath>
    <clipPath
       clipPathUnits="userSpaceOnUse"
       id="clipPath94">
      <path
         d="M 0,0 H 555.591 V 396.85 H 0 Z"
         transform="matrix(0.56696,0,0,-0.56696,-0.66666667,219.31467)"
         id="path94" />
    </clipPath>
    <clipPath
       clipPathUnits="userSpaceOnUse"
       id="clipPath95">
      <path
         d="m 115.279,107.031 h 26 v 16 h -26 z"
         transform="matrix(0.56696,0,0,-0.56696,-0.66666667,219.31467)"
         id="path95" />
    </clipPath>
    <clipPath
       clipPathUnits="userSpaceOnUse"
       id="clipPath96">
      <path
         d="m 115.279,107.031 h 26 v 16 h -26 z"
         transform="matrix(0.56696,0,0,-0.56696,-0.66666667,219.31467)"
         id="path96" />
    </clipPath>
    <clipPath
       clipPathUnits="userSpaceOnUse"
       id="clipPath97">
      <path
         d="m 241.639,17.0107 h 10e-4 v -10e-5 h -10e-4 z"
         transform="translate(-241.6394,-17.010595)"
         id="path97" />
    </clipPath>
    <clipPath
       clipPathUnits="userSpaceOnUse"
       id="clipPath98">
      <path
         d="M 0,396.85 H 555.591 V 0 H 0 Z"
         transform="matrix(0.56696,0,0,-0.56696,-0.66666667,219.31467)"
         id="path98" />
    </clipPath>
    <clipPath
       clipPathUnits="userSpaceOnUse"
       id="clipPath99">
      <path
         d="m 223.788,11.338 h 37 v 13.001 h -37 z"
         transform="matrix(0.56696,0,0,-0.56696,-0.66666667,219.31467)"
         id="path99" />
    </clipPath>
    <clipPath
       clipPathUnits="userSpaceOnUse"
       id="clipPath100">
      <path
         d="m 223.788,11.338 h 37 v 13.001 h -37 z"
         transform="matrix(0.56696,0,0,-0.56696,-0.66666667,219.31467)"
         id="path100" />
    </clipPath>
    <clipPath
       clipPathUnits="userSpaceOnUse"
       id="clipPath101">
      <path
         d="m 282.426,20.1837 v 0 -2e-4 0 z"
         transform="translate(-282.4259,-20.183499)"
         id="path101" />
    </clipPath>
    <clipPath
       clipPathUnits="userSpaceOnUse"
       id="clipPath102">
      <path
         d="M 0,396.85 H 555.591 V 0 H 0 Z"
         transform="matrix(0.56696,0,0,-0.56696,-0.66666667,219.31467)"
         id="path102" />
    </clipPath>
    <clipPath
       clipPathUnits="userSpaceOnUse"
       id="clipPath103">
      <path
         d="m 279.574,14.512 h 6.999 v 13 h -6.999 z"
         transform="matrix(0.56696,0,0,-0.56696,-0.66666667,219.31467)"
         id="path103" />
    </clipPath>
    <clipPath
       clipPathUnits="userSpaceOnUse"
       id="clipPath104">
      <path
         d="m 279.574,14.512 h 6.999 v 13 h -6.999 z"
         transform="matrix(0.56696,0,0,-0.56696,-0.66666667,219.31467)"
         id="path104" />
    </clipPath>
    <clipPath
       clipPathUnits="userSpaceOnUse"
       id="clipPath105">
      <path
         d="m 127.865,114.635 v 0 0 z"
         transform="translate(-127.8652,-114.63461)"
         id="path105" />
    </clipPath>
    <clipPath
       clipPathUnits="userSpaceOnUse"
       id="clipPath106">
      <path
         d="M 0,396.85 H 555.591 V 0 H 0 Z"
         transform="matrix(0.56696,0,0,-0.56696,-0.66666667,219.31467)"
         id="path106" />
    </clipPath>
    <clipPath
       clipPathUnits="userSpaceOnUse"
       id="clipPath107">
      <path
         d="m 125.279,109.531 h 6 v 11 h -6 z"
         transform="matrix(0.56696,0,0,-0.56696,-0.66666667,219.31467)"
         id="path107" />
    </clipPath>
    <clipPath
       clipPathUnits="userSpaceOnUse"
       id="clipPath108">
      <path
         d="m 125.279,109.531 h 6 v 11 h -6 z"
         transform="matrix(0.56696,0,0,-0.56696,-0.66666667,219.31467)"
         id="path108" />
    </clipPath>
    <clipPath
       clipPathUnits="userSpaceOnUse"
       id="clipPath109">
      <path
         d="m 280.464,16.529 h 6 v 10.8 h -6 z"
         transform="translate(-283.849,-23.3064)"
         id="path109" />
    </clipPath>
    <clipPath
       clipPathUnits="userSpaceOnUse"
       id="clipPath110">
      <path
         d="M 0,0 H 555.591 V 396.85 H 0 Z"
         transform="matrix(0.56696,0,0,-0.56696,-0.66666667,219.31467)"
         id="path110" />
    </clipPath>
    <clipPath
       clipPathUnits="userSpaceOnUse"
       id="clipPath111">
      <path
         d="m 242.415,12.6755 v 0 -10e-5 0 z"
         transform="translate(-242.41491,-12.675403)"
         id="path111" />
    </clipPath>
    <clipPath
       clipPathUnits="userSpaceOnUse"
       id="clipPath112">
      <path
         d="M 0,396.85 H 555.591 V 0 H 0 Z"
         transform="matrix(0.56696,0,0,-0.56696,-0.66666667,219.31467)"
         id="path112" />
    </clipPath>
    <clipPath
       clipPathUnits="userSpaceOnUse"
       id="clipPath113">
      <path
         d="m 226.829,7.071 h 32 v 12 h -32 z"
         transform="matrix(0.56696,0,0,-0.56696,-0.66666667,219.31467)"
         id="path113" />
    </clipPath>
    <clipPath
       clipPathUnits="userSpaceOnUse"
       id="clipPath114">
      <path
         d="m 226.829,7.071 h 32 v 12 h -32 z"
         transform="matrix(0.56696,0,0,-0.56696,-0.66666667,219.31467)"
         id="path114" />
    </clipPath>
    <clipPath
       clipPathUnits="userSpaceOnUse"
       id="clipPath115">
      <path
         d="m 222.11,16.028 h 32 v 11.8 h -32 z"
         transform="translate(-225.4946,-22.8064)"
         id="path115" />
    </clipPath>
    <clipPath
       clipPathUnits="userSpaceOnUse"
       id="clipPath116">
      <path
         d="M 0,0 H 555.591 V 396.85 H 0 Z"
         transform="matrix(0.56696,0,0,-0.56696,-0.66666667,219.31467)"
         id="path116" />
    </clipPath>
    <clipPath
       clipPathUnits="userSpaceOnUse"
       id="clipPath117">
      <path
         d="M 0,0 H 555.591 V 396.85 H 0 Z"
         transform="translate(-242.01961,-20.095504)"
         id="path117" />
    </clipPath>
    <clipPath
       clipPathUnits="userSpaceOnUse"
       id="clipPath118">
      <path
         d="M 0,0 H 555.591 V 396.85 H 0 Z"
         transform="translate(-252.0993,-26.634607)"
         id="path118" />
    </clipPath>
    <clipPath
       clipPathUnits="userSpaceOnUse"
       id="clipPath119">
      <path
         d="m 192.756,24.0141 v 0 -10e-5 0 z"
         transform="translate(-192.7558,-24.013999)"
         id="path119" />
    </clipPath>
    <clipPath
       clipPathUnits="userSpaceOnUse"
       id="clipPath120">
      <path
         d="M 0,396.85 H 555.591 V 0 H 0 Z"
         transform="matrix(0.56696,0,0,-0.56696,-0.66666667,219.31467)"
         id="path120" />
    </clipPath>
    <clipPath
       clipPathUnits="userSpaceOnUse"
       id="clipPath121">
      <path
         d="m 176.256,18.41 h 33 v 12 h -33 z"
         transform="matrix(0.56696,0,0,-0.56696,-0.66666667,219.31467)"
         id="path121" />
    </clipPath>
    <clipPath
       clipPathUnits="userSpaceOnUse"
       id="clipPath122">
      <path
         d="m 176.256,18.41 h 33 v 12 h -33 z"
         transform="matrix(0.56696,0,0,-0.56696,-0.66666667,219.31467)"
         id="path122" />
    </clipPath>
    <clipPath
       clipPathUnits="userSpaceOnUse"
       id="clipPath123">
      <path
         d="m 176.256,16.028 h 33 v 11.8 h -33 z"
         transform="translate(-179.6403,-22.8064)"
         id="path123" />
    </clipPath>
    <clipPath
       clipPathUnits="userSpaceOnUse"
       id="clipPath124">
      <path
         d="M 0,0 H 555.591 V 396.85 H 0 Z"
         transform="matrix(0.56696,0,0,-0.56696,-0.66666667,219.31467)"
         id="path124" />
    </clipPath>
    <clipPath
       clipPathUnits="userSpaceOnUse"
       id="clipPath125">
      <path
         d="M 0,0 H 555.591 V 396.85 H 0 Z"
         transform="translate(-196.1653,-20.095504)"
         id="path125" />
    </clipPath>
    <clipPath
       clipPathUnits="userSpaceOnUse"
       id="clipPath126">
      <path
         d="M 0,0 H 555.591 V 396.85 H 0 Z"
         transform="translate(-203.5809,-17.656407)"
         id="path126" />
    </clipPath>
    <clipPath
       clipPathUnits="userSpaceOnUse"
       id="clipPath127">
      <path
         d="M 0,0 H 555.59 V 396.849 H 0 Z"
         transform="matrix(0.56696,0,0,-0.56696,-0.66666667,219.31467)"
         id="path127" />
    </clipPath>
    <clipPath
       clipPathUnits="userSpaceOnUse"
       id="clipPath128">
      <path
         d="M 0,0 H 612 V 792 H 0 Z"
         transform="matrix(1.3333333,0,0,-1.3333333,-78.666667,628)"
         id="path128" />
    </clipPath>
  </defs>
  <sodipodi:namedview
     id="namedview1"
     pagecolor="#ffffff"
     bordercolor="#000000"
     borderopacity="0.25"
     inkscape:showpageshadow="2"
     inkscape:pageopacity="0.0"
     inkscape:pagecheckerboard="0"
     inkscape:deskcolor="#d1d1d1">
    <inkscape:page
       x="0"
       y="0"
       inkscape:label="1"
       id="page1"
       width="314.66666"
       height="210.66667"
       margin="0"
       bleed="0" />
  </sodipodi:namedview>
  <g
     id="g1"
     inkscape:groupmode="layer"
     inkscape:label="1">
    <g
       id="g239">
      <g
         clip-path="url(#clipPath128)"
         id="g238">
        <g
           clip-path="url(#clipPath127)"
           id="g237">
          <path
             d="M 283.465,147.402 H 555.591 V 340.158 H 283.465 Z"
             style="fill:#b3b3b3;fill-opacity:1;fill-rule:nonzero;stroke:none"
             transform="matrix(0.56696,0,0,-0.56696,-0.66666667,219.31467)"
             clip-path="url(#clipPath1)"
             id="path129" />
          <path
             d="M 283.465,147.402 H 56.693 v 192.756 h 226.772 z"
             style="fill:#e6e6e6;fill-opacity:1;fill-rule:nonzero;stroke:none"
             transform="matrix(0.56696,0,0,-0.56696,-0.66666667,219.31467)"
             clip-path="url(#clipPath2)"
             id="path130" />
          <path
             d="m 283.465,45.355 h 272.126 v 79.37 H 283.465 Z"
             style="fill:#b3b3b3;fill-opacity:1;fill-rule:nonzero;stroke:none"
             transform="matrix(0.56696,0,0,-0.56696,-0.66666667,219.31467)"
             clip-path="url(#clipPath3)"
             id="path131" />
          <path
             d="M 283.465,45.354 H 56.693 v 79.37 h 226.772 z"
             style="fill:#e6e6e6;fill-opacity:1;fill-rule:nonzero;stroke:none"
             transform="matrix(0.56696,0,0,-0.56696,-0.66666667,219.31467)"
             clip-path="url(#clipPath4)"
             id="path132" />
          <path
             d="M 0,0 V -351.496"
             style="fill:none;stroke:#333333;stroke-width:2;stroke-linecap:butt;stroke-linejoin:round;stroke-miterlimit:10;stroke-dasharray:none;stroke-opacity:1"
             transform="matrix(0.56696,0,0,-0.56696,160.04642,0.74489654)"
             clip-path="url(#clipPath5)"
             id="path133" />
          <g
             clip-path="url(#clipPath7)"
             id="g134">
            <path
               d="m 0,0 c -3.862,0 -7.004,3.142 -7.004,7.004 v 17.008 c 0,3.862 3.142,7.004 7.004,7.004 h 255.118 c 3.862,0 7.004,-3.142 7.004,-7.004 V 7.004 C 262.122,3.142 258.98,0 255.118,0 Z"
               style="fill:#8fbbda;fill-opacity:1;fill-rule:nonzero;stroke:none"
               transform="matrix(0.56696,0,0,-0.56696,164.86785,179.89297)"
               clip-path="url(#clipPath6)"
               id="path134" />
          </g>
          <path
             d="m 0,0 h -255.118 c -4.697,0 -8.504,-3.807 -8.504,-8.504 v -17.008 c 0,-4.696 3.807,-8.504 8.504,-8.504 H 0 c 4.697,0 8.504,3.808 8.504,8.504 V -8.504 C 8.504,-3.807 4.697,0 0,0 m 0,-3 c 3.035,0 5.504,-2.469 5.504,-5.504 v -17.008 c 0,-3.035 -2.469,-5.504 -5.504,-5.504 h -255.118 c -3.035,0 -5.504,2.469 -5.504,5.504 v 17.008 c 0,3.035 2.469,5.504 5.504,5.504 z"
             style="fill:#1f77b4;fill-opacity:1;fill-rule:nonzero;stroke:none"
             transform="matrix(0.56696,0,0,-0.56696,309.50955,161.45793)"
             clip-path="url(#clipPath8)"
             id="path135" />
          <path
             d="m 0,0 c -3.862,0 -7.004,3.142 -7.004,7.004 v 17.008 c 0,3.862 3.142,7.004 7.004,7.004 h 255.118 c 3.862,0 7.004,-3.142 7.004,-7.004 V 7.004 C 262.122,3.142 258.98,0 255.118,0 Z"
             style="fill:#8fbbda;fill-opacity:1;fill-rule:nonzero;stroke:none"
             transform="matrix(0.56696,0,0,-0.56696,164.86785,122.03641)"
             clip-path="url(#clipPath9)"
             id="path136" />
          <path
             d="m 0,0 h -255.118 c -4.697,0 -8.504,-3.807 -8.504,-8.504 v -17.008 c 0,-4.696 3.807,-8.504 8.504,-8.504 H 0 c 4.697,0 8.504,3.808 8.504,8.504 V -8.504 C 8.504,-3.807 4.697,0 0,0 m 0,-3 c 3.035,0 5.504,-2.469 5.504,-5.504 v -17.008 c 0,-3.035 -2.469,-5.504 -5.504,-5.504 h -255.118 c -3.035,0 -5.504,2.469 -5.504,5.504 v 17.008 c 0,3.035 2.469,5.504 5.504,5.504 z"
             style="fill:#1f77b4;fill-opacity:1;fill-rule:nonzero;stroke:none"
             transform="matrix(0.56696,0,0,-0.56696,309.50955,103.60125)"
             clip-path="url(#clipPath10)"
             id="path137" />
          <g
             opacity="0"
             clip-path="url(#clipPath12)"
             id="g138">
            <path
               d="M 0,0 C 0,0 0,0 0,0 0,0 0,0 0,0 V 0 C 0,0 0,0 0,0 0,0 0,0 0,0 0,0 0,0 0,0 0,0 0,0 0,0 0,0 0,0 0,0 V 0 C 0,0 0,0 0,0 0,0 0,0 0,0 0,0 0,0 0,0 0,0 0,0 0,0 0,0 0,0 0,0 0,0 0,0 0,0 0,0 0,0 0,0 0,0 0,0 0,0 0,0 0,0 0,0 0,0 0,0 0,0 0,0 0,0 0,0 0,0 0,0 0,0 0,0 0,0 0,0 0,0 0,0 0,0 0,0 0,0 0,0 0,0 0,0 0,0 0,0 0,0 0,0 0,0 0,0 0,0 0,0 0,0 0,0 V 0 C 0,0 0,0 0,0 0,0 0,0 0,0 0,0 0,0 0,0 0,0 0,0 0,0 0,0 0,0 0,0 0,0 0,0 0,0 0,0 0,0 0,0 0,0 0,0 0,0 0,0 0,0 0,0 0,0 0,0 0,0 V 0 0 C 0,0 0,0 0,0 0,0 0,0 0,0 0,0 0,0 0,0 0,0 0,0 0,0 0,0 0,0 0,0 0,0 0,0 0,0 0,0 0,0 0,0 0,0 0,0 0,0 0,0 0,0 0,0 0,0 0,0 0,0 0,0 0,0 0,0 0,0 0,0 0,0 0,0 0,0 0,0 0,0 0,0 0,0 0,0 0,0 0,0 0,0 0,0 0,0 0,0 0,0 0,0 0,0 0,0 0,0 0,0 0,0 0,0 0,0 0,0 0,0 0,0 0,0 0,0 0,0 0,0 0,0 0,0 0,0 0,0 0,0 0,0 0,0 0,0 0,0 0,0 0,0 0,0 0,0 0,0 0,0 0,0 0,0 0,0 0,0 0,0 0,0 0,0 0,0 0,0 0,0 0,0 0,0 0,0 0,0 0,0 0,0 0,0 0,0 0,0 0,0 0,0 0,0 0,0 0,0 0,0 0,0 0,0 0,0 V 0 C 0,0 0,0 0,0 0,0 0,0 0,0 0,0 0,0 0,0 0,0 0,0 0,0 0,0 0,0 0,0 0,0 0,0 0,0 0,0 0,0 0,0 0,0 0,0 0,0 V 0 Z"
               style="fill:none;stroke:#000000;stroke-width:1;stroke-linecap:butt;stroke-linejoin:miter;stroke-miterlimit:10;stroke-dasharray:none;stroke-opacity:1"
               transform="matrix(0.56696,0,0,-0.56696,95.783491,14.535291)"
               clip-path="url(#clipPath11)"
               id="path138" />
          </g>
          <g
             opacity="0"
             clip-path="url(#clipPath13)"
             id="g139" />
          <path
             d="M 0,0 H -1.773 V -6.034 H -8.564 V 0 h -1.772 v -13.82 h 1.772 v 6.572 h 6.791 V -13.82 H 0 Z"
             style="fill:#000000;fill-opacity:1;fill-rule:nonzero;stroke:none"
             transform="matrix(0.56696,0,0,-0.56696,85.488575,9.3100747)"
             clip-path="url(#clipPath14)"
             id="path139" />
          <path
             d="m 157.097,370.127 h -1.772 v -1.773 h 1.772 z m -0.139,-4.7 h -1.494 v -8.842 h 1.494 z"
             style="fill:#000000;fill-opacity:1;fill-rule:nonzero;stroke:none"
             transform="matrix(0.56696,0,0,-0.56696,-0.66666667,219.31467)"
             clip-path="url(#clipPath15)"
             id="path140" />
          <path
             d="m 0,0 c -1.036,0.477 -1.853,0.636 -2.869,0.636 -0.497,0 -3.304,0 -3.304,-2.608 0,-0.977 0.576,-1.614 1.075,-1.992 0.617,-0.438 1.054,-0.517 2.149,-0.736 0.718,-0.139 1.872,-0.378 1.872,-1.434 0,-1.374 -1.573,-1.374 -1.872,-1.374 -1.612,0 -2.728,0.736 -3.085,0.975 l -0.239,-1.353 c 0.637,-0.319 1.732,-0.877 3.345,-0.877 0.358,0 1.453,0 2.309,0.638 0.619,0.478 0.957,1.273 0.957,2.13 0,1.095 -0.736,1.773 -0.777,1.832 -0.777,0.697 -1.314,0.816 -2.31,0.996 -1.095,0.218 -2.012,0.418 -2.012,1.394 0,1.234 1.434,1.234 1.694,1.234 0.637,0 1.692,-0.08 2.828,-0.756 z"
             style="fill:#000000;fill-opacity:1;fill-rule:nonzero;stroke:none"
             transform="matrix(0.56696,0,0,-0.56696,93.099162,12.301639)"
             clip-path="url(#clipPath16)"
             id="path141" />
          <path
             d="M 0,0 H 2.808 V 1.155 H 0 V 3.683 H -1.374 V 1.155 H -3.106 V 0 h 1.673 v -5.317 c 0,-1.196 0.278,-2.589 1.653,-2.589 1.394,0 2.41,0.497 2.906,0.756 L 2.808,-5.975 C 2.291,-6.394 1.653,-6.633 1.016,-6.633 0.28,-6.633 0,-6.034 0,-4.98 Z"
             style="fill:#000000;fill-opacity:1;fill-rule:nonzero;stroke:none"
             transform="matrix(0.56696,0,0,-0.56696,95.567196,12.78707)"
             clip-path="url(#clipPath17)"
             id="path142" />
          <path
             d="m 0,0 c 0,2.669 -1.991,4.798 -4.361,4.798 -2.448,0 -4.381,-2.19 -4.381,-4.798 0,-2.628 2.031,-4.6 4.361,-4.6 C -1.991,-4.6 0,-2.589 0,0 m -4.381,-3.327 c -1.374,0 -2.808,1.116 -2.808,3.525 0,2.41 1.514,3.386 2.808,3.386 1.395,0 2.828,-1.036 2.828,-3.386 0,-2.35 -1.353,-3.525 -2.828,-3.525"
             style="fill:#000000;fill-opacity:1;fill-rule:nonzero;stroke:none"
             transform="matrix(0.56696,0,0,-0.56696,102.96869,14.66161)"
             clip-path="url(#clipPath18)"
             id="path143" />
          <path
             d="M 0,0 C 0,1.992 1.434,3.427 3.386,3.466 V 4.8 C 1.612,4.78 0.517,3.805 -0.1,2.887 V 4.7 H -1.494 V -4.261 H 0 Z"
             style="fill:#000000;fill-opacity:1;fill-rule:nonzero;stroke:none"
             transform="matrix(0.56696,0,0,-0.56696,104.77587,14.729815)"
             clip-path="url(#clipPath19)"
             id="path144" />
          <path
             d="m 0,0 h -1.494 c -2.587,-6.333 -2.628,-7.248 -2.648,-7.708 h -0.019 c -0.12,1.335 -1.714,5.039 -1.792,5.219 L -7.03,0 h -1.573 l 3.864,-8.842 c -0.239,-0.617 -0.638,-1.613 -0.717,-1.792 -0.517,-1.155 -0.856,-1.155 -1.135,-1.155 -0.318,0 -0.956,0.08 -1.553,0.319 l 0.119,-1.296 c 0.438,-0.098 0.995,-0.159 1.434,-0.159 0.697,0 1.433,0.239 2.25,2.27 z"
             style="fill:#000000;fill-opacity:1;fill-rule:nonzero;stroke:none"
             transform="matrix(0.56696,0,0,-0.56696,111.89383,12.132458)"
             clip-path="url(#clipPath20)"
             id="path145" />
          <g
             opacity="0"
             clip-path="url(#clipPath22)"
             id="g146">
            <path
               d="M 0,0 C 0,0 0,0 0,0 0,0 0,0 0,0 0,0 0,0 0,0 0,0 0,0 0,0 0,0 0,0 0,0 0,0 0,0 0,0 0,0 0,0 0,0 V 0 C 0,0 0,0 0,0 0,0 0,0 0,0 0,0 0,0 0,0 0,0 0,0 0,0 0,0 0,0 0,0 0,0 0,0 0,0 0,0 0,0 0,0 0,0 0,0 0,0 0,0 0,0 0,0 0,0 0,0 0,0 0,0 0,0 0,0 0,0 0,0 0,0 V 0 C 0,0 0,0 0,0 0,0 0,0 0,0 0,0 0,0 0,0 0,0 0,0 0,0 0,0 0,0 0,0 0,0 0,0 0,0 0,0 0,0 0,0 0,0 0,0 0,0 0,0 0,0 0,0 0,0 0,0 0,0 0,0 0,0 0,0 0,0 0,0 0,0 0,0 0,0 0,0 V 0 C 0,0 0,0 0,0 0,0 0,0 0,0 V 0 C 0,0 0,0 0,0 0,0 0,0 0,0 V 0 C 0,0 0,0 0,0 V 0 C 0,0 0,0 0,0 0,0 0,0 0,0 0,0 0,0 0,0 0,0 0,0 0,0 0,0 0,0 0,0 0,0 0,0 0,0 0,0 0,0 0,0 0,0 0,0 0,0 0,0 0,0 0,0 0,0 0,0 0,0 0,0 0,0 0,0 0,0 0,0 0,0 0,0 0,0 0,0 0,0 0,0 0,0 0,0 0,0 0,0 0,0 0,0 0,0 0,0 0,0 0,0 0,0 0,0 0,0 0,0 0,0 0,0 0,0 0,0 0,0 0,0 0,0 0,0 0,0 0,0 0,0 0,0 0,0 0,0 0,0 0,0 0,0 0,0 0,0 0,0 0,0 0,0 0,0 0,0 0,0 0,0 0,0 0,0 0,0 0,0 0,0 0,0 0,0 0,0 0,0 V 0 C 0,0 0,0 0,0 0,0 0,0 0,0 0,0 0,0 0,0 0,0 0,0 0,0 V 0 C 0,0 0,0 0,0 V 0 C 0,0 0,0 0,0 0,0 0,0 0,0 0,0 0,0 0,0 0,0 0,0 0,0 0,0 0,0 0,0 0,0 0,0 0,0 0,0 0,0 0,0 Z"
               style="fill:none;stroke:#000000;stroke-width:1;stroke-linecap:butt;stroke-linejoin:miter;stroke-miterlimit:10;stroke-dasharray:none;stroke-opacity:1"
               transform="matrix(0.56696,0,0,-0.56696,237.07729,14.648797)"
               clip-path="url(#clipPath21)"
               id="path146" />
          </g>
          <g
             opacity="0"
             clip-path="url(#clipPath23)"
             id="g147" />
          <path
             d="m 0,0 v 1.214 h -6.014 v 4.999 h 2.609 c 0.239,0 0.478,-0.021 0.717,-0.021 H 0.817 V 7.488 H -7.786 V -6.273 h 1.772 V 0 Z"
             style="fill:#000000;fill-opacity:1;fill-rule:nonzero;stroke:none"
             transform="matrix(0.56696,0,0,-0.56696,196.13819,13.651287)"
             clip-path="url(#clipPath24)"
             id="path147" />
          <path
             d="m 0,0 h -1.553 v -5.775 c 0,-1.494 -1.116,-2.191 -2.389,-2.191 -1.414,0 -1.555,0.518 -1.555,1.374 V 0 H -7.05 v -6.672 c 0,-1.433 0.458,-2.389 2.111,-2.389 1.056,0 2.47,0.319 3.445,1.175 V -8.842 H 0 Z"
             style="fill:#000000;fill-opacity:1;fill-rule:nonzero;stroke:none"
             transform="matrix(0.56696,0,0,-0.56696,201.69701,12.194881)"
             clip-path="url(#clipPath25)"
             id="path148" />
          <path
             d="M 0,0 H 2.808 V 1.155 H 0 V 3.683 H -1.374 V 1.155 H -3.106 V 0 h 1.673 v -5.317 c 0,-1.196 0.278,-2.589 1.653,-2.589 1.394,0 2.41,0.497 2.906,0.756 L 2.808,-5.975 C 2.291,-6.394 1.653,-6.633 1.016,-6.633 0.28,-6.633 0,-6.034 0,-4.98 Z"
             style="fill:#000000;fill-opacity:1;fill-rule:nonzero;stroke:none"
             transform="matrix(0.56696,0,0,-0.56696,204.60092,12.849549)"
             clip-path="url(#clipPath26)"
             id="path149" />
          <path
             d="m 0,0 h -1.553 v -5.775 c 0,-1.494 -1.116,-2.191 -2.389,-2.191 -1.414,0 -1.555,0.518 -1.555,1.374 V 0 H -7.05 v -6.672 c 0,-1.433 0.458,-2.389 2.111,-2.389 1.056,0 2.47,0.319 3.445,1.175 V -8.842 H 0 Z"
             style="fill:#000000;fill-opacity:1;fill-rule:nonzero;stroke:none"
             transform="matrix(0.56696,0,0,-0.56696,211.56211,12.194881)"
             clip-path="url(#clipPath27)"
             id="path150" />
          <path
             d="M 0,0 C 0,1.992 1.434,3.427 3.386,3.466 V 4.8 C 1.612,4.78 0.517,3.805 -0.1,2.887 V 4.7 H -1.494 V -4.261 H 0 Z"
             style="fill:#000000;fill-opacity:1;fill-rule:nonzero;stroke:none"
             transform="matrix(0.56696,0,0,-0.56696,214.26316,14.792294)"
             clip-path="url(#clipPath28)"
             id="path151" />
          <path
             d="m 0,0 c 0,0.677 -0.019,2.17 -0.795,3.366 -0.818,1.234 -2.032,1.453 -2.749,1.453 -2.211,0 -4.003,-2.111 -4.003,-4.68 0,-2.628 1.913,-4.719 4.302,-4.719 1.254,0 2.389,0.478 3.165,1.036 l -0.119,1.294 c -1.254,-1.036 -2.568,-1.116 -3.026,-1.116 -1.594,0 -2.869,1.414 -2.928,3.366 z m -6.053,1.095 c 0.319,1.514 1.373,2.51 2.509,2.51 1.036,0 2.15,-0.677 2.41,-2.51 z"
             style="fill:#000000;fill-opacity:1;fill-rule:nonzero;stroke:none"
             transform="matrix(0.56696,0,0,-0.56696,221.01974,14.735598)"
             clip-path="url(#clipPath29)"
             id="path152" />
          <path
             d="m 0,0 c -0.637,-0.598 -1.972,-1.812 -2.887,-4.262 -0.797,-2.13 -0.936,-4.241 -0.936,-5.696 0,-6.431 2.867,-9.079 3.823,-9.956 h 1.214 c -0.955,0.956 -3.484,3.525 -3.484,9.956 0,1.116 0.059,3.445 0.876,5.795 0.816,2.31 1.952,3.505 2.608,4.163 z"
             style="fill:#000000;fill-opacity:1;fill-rule:nonzero;stroke:none"
             transform="matrix(0.56696,0,0,-0.56696,228.25024,8.7399964)"
             clip-path="url(#clipPath30)"
             id="path153" />
          <path
             d="m 0,0 v 1.216 h -6.572 v 4.718 h 2.749 c 0.239,0 0.478,-0.02 0.717,-0.02 H 0.538 V 7.209 H -8.344 V -6.552 h 9.161 v 1.414 h -2.509 c -0.239,0 -0.478,-0.02 -0.717,-0.02 H -6.572 V 0 Z"
             style="fill:#000000;fill-opacity:1;fill-rule:nonzero;stroke:none"
             transform="matrix(0.56696,0,0,-0.56696,235.34784,13.493559)"
             clip-path="url(#clipPath31)"
             id="path154" />
          <path
             d="m 0,0 h -1.494 l -1.572,-4.142 c -0.418,-1.096 -1.036,-2.71 -1.195,-3.646 h -0.02 c -0.119,0.718 -0.638,2.093 -0.836,2.63 L -7.048,0 h -1.555 l 3.426,-8.842 h 1.752 z"
             style="fill:#000000;fill-opacity:1;fill-rule:nonzero;stroke:none"
             transform="matrix(0.56696,0,0,-0.56696,241.33817,12.194881)"
             clip-path="url(#clipPath32)"
             id="path155" />
          <path
             d="m 0,0 c 0,2.031 -1.453,3.425 -3.286,3.425 -1.294,0 -2.191,-0.319 -3.127,-0.856 l 0.121,-1.314 c 1.036,0.737 2.031,0.995 3.006,0.995 0.936,0 1.733,-0.795 1.733,-2.269 v -0.856 c -2.988,-0.041 -5.516,-0.877 -5.516,-2.63 0,-0.856 0.538,-2.468 2.271,-2.468 0.278,0 2.15,0.039 3.304,0.935 V -5.755 H 0 Z m -1.553,-3.127 c 0,-0.378 0,-0.875 -0.677,-1.254 -0.578,-0.358 -1.334,-0.378 -1.553,-0.378 -0.956,0 -1.853,0.457 -1.853,1.295 0,1.394 3.227,1.533 4.083,1.573 z"
             style="fill:#000000;fill-opacity:1;fill-rule:nonzero;stroke:none"
             transform="matrix(0.56696,0,0,-0.56696,246.02353,13.94537)"
             clip-path="url(#clipPath33)"
             id="path156" />
          <path
             d="m 438.378,356.474 h 1.493 v 13.82 h -1.493 z"
             style="fill:#000000;fill-opacity:1;fill-rule:nonzero;stroke:none"
             transform="matrix(0.56696,0,0,-0.56696,-0.66666667,219.31467)"
             clip-path="url(#clipPath34)"
             id="path157" />
          <path
             d="m 0,0 h -1.554 v -5.775 c 0,-1.494 -1.115,-2.191 -2.389,-2.191 -1.414,0 -1.554,0.518 -1.554,1.374 V 0 H -7.05 v -6.672 c 0,-1.433 0.457,-2.389 2.11,-2.389 1.057,0 2.471,0.319 3.446,1.175 V -8.842 H 0 Z"
             style="fill:#000000;fill-opacity:1;fill-rule:nonzero;stroke:none"
             transform="matrix(0.56696,0,0,-0.56696,254.53796,12.194881)"
             clip-path="url(#clipPath35)"
             id="path158" />
          <path
             d="m 0,0 c 0,2.031 -1.453,3.425 -3.286,3.425 -1.293,0 -2.19,-0.319 -3.126,-0.856 l 0.12,-1.314 c 1.036,0.737 2.031,0.995 3.006,0.995 0.936,0 1.733,-0.795 1.733,-2.269 v -0.856 c -2.987,-0.041 -5.515,-0.877 -5.515,-2.63 0,-0.856 0.537,-2.468 2.27,-2.468 0.278,0 2.15,0.039 3.305,0.935 V -5.755 H 0 Z m -1.553,-3.127 c 0,-0.378 0,-0.875 -0.676,-1.254 -0.578,-0.358 -1.335,-0.378 -1.553,-0.378 -0.957,0 -1.854,0.457 -1.854,1.295 0,1.394 3.227,1.533 4.083,1.573 z"
             style="fill:#000000;fill-opacity:1;fill-rule:nonzero;stroke:none"
             transform="matrix(0.56696,0,0,-0.56696,259.97057,13.94537)"
             clip-path="url(#clipPath36)"
             id="path159" />
          <path
             d="M 0,0 H 2.808 V 1.155 H 0 V 3.683 H -1.373 V 1.155 H -3.106 V 0 h 1.674 v -5.317 c 0,-1.196 0.278,-2.589 1.653,-2.589 1.393,0 2.409,0.497 2.906,0.756 L 2.808,-5.975 C 2.291,-6.394 1.654,-6.633 1.016,-6.633 0.28,-6.633 0,-6.034 0,-4.98 Z"
             style="fill:#000000;fill-opacity:1;fill-rule:nonzero;stroke:none"
             transform="matrix(0.56696,0,0,-0.56696,262.88418,12.849549)"
             clip-path="url(#clipPath37)"
             id="path160" />
          <path
             d="m 471.81,370.016 h -1.772 v -1.773 h 1.772 z m -0.139,-4.7 h -1.493 v -8.842 h 1.493 z"
             style="fill:#000000;fill-opacity:1;fill-rule:nonzero;stroke:none"
             transform="matrix(0.56696,0,0,-0.56696,-0.66666667,219.31467)"
             clip-path="url(#clipPath38)"
             id="path161" />
          <path
             d="m 0,0 c 0,2.669 -1.991,4.798 -4.361,4.798 -2.448,0 -4.381,-2.19 -4.381,-4.798 0,-2.628 2.031,-4.6 4.361,-4.6 C -1.991,-4.6 0,-2.589 0,0 m -4.381,-3.327 c -1.374,0 -2.808,1.116 -2.808,3.525 0,2.41 1.514,3.386 2.808,3.386 1.395,0 2.828,-1.036 2.828,-3.386 0,-2.35 -1.353,-3.525 -2.828,-3.525"
             style="fill:#000000;fill-opacity:1;fill-rule:nonzero;stroke:none"
             transform="matrix(0.56696,0,0,-0.56696,273.00725,14.724089)"
             clip-path="url(#clipPath39)"
             id="path162" />
          <path
             d="m 0,0 c 0,1.314 -0.299,3.126 -2.729,3.126 -1.792,0 -2.768,-1.354 -2.887,-1.514 V 3.026 H -7.05 v -8.96 h 1.553 v 4.879 c 0,1.314 0.498,2.966 2.012,2.966 1.911,0 1.931,-1.413 1.931,-2.05 V -5.934 H 0 Z"
             style="fill:#000000;fill-opacity:1;fill-rule:nonzero;stroke:none"
             transform="matrix(0.56696,0,0,-0.56696,278.23689,13.843487)"
             clip-path="url(#clipPath40)"
             id="path163" />
          <path
             d="m 0,0 c 0.637,0.597 1.972,1.812 2.887,4.261 0.797,2.131 0.936,4.242 0.936,5.695 0,6.433 -2.867,9.082 -3.823,9.958 H -1.214 C -0.26,18.958 2.27,16.389 2.27,9.956 2.27,8.842 2.211,6.511 1.393,4.161 0.578,1.852 -0.558,0.656 -1.214,0 Z"
             style="fill:#000000;fill-opacity:1;fill-rule:nonzero;stroke:none"
             transform="matrix(0.56696,0,0,-0.56696,280.48602,20.030438)"
             clip-path="url(#clipPath41)"
             id="path164" />
          <path
             d="M 0,0 V -306.142"
             style="fill:none;stroke:#333333;stroke-width:2;stroke-linecap:butt;stroke-linejoin:round;stroke-miterlimit:10;stroke-dasharray:none;stroke-opacity:1"
             transform="matrix(0.56696,0,0,-0.56696,108.61822,26.45897)"
             clip-path="url(#clipPath42)"
             id="path165" />
          <path
             d="M 0,0 V -306.142"
             style="fill:none;stroke:#333333;stroke-width:2;stroke-linecap:butt;stroke-linejoin:round;stroke-miterlimit:10;stroke-dasharray:none;stroke-opacity:1"
             transform="matrix(0.56696,0,0,-0.56696,134.33229,26.45897)"
             clip-path="url(#clipPath43)"
             id="path166" />
          <path
             d="m 0,0 c -3.862,0 -7.004,3.142 -7.004,7.004 v 17.008 c 0,3.862 3.142,7.004 7.004,7.004 h 119.055 c 3.862,0 7.004,-3.142 7.004,-7.004 V 7.004 C 126.059,3.142 122.917,0 119.055,0 Z"
             style="fill:#ffbf86;fill-opacity:1;fill-rule:nonzero;stroke:none"
             transform="matrix(0.56696,0,0,-0.56696,62.011385,89.893857)"
             clip-path="url(#clipPath44)"
             id="path167" />
          <path
             d="m 0,0 h -119.055 c -4.697,0 -8.504,-3.807 -8.504,-8.504 v -17.008 c 0,-4.696 3.807,-8.504 8.504,-8.504 H 0 c 4.697,0 8.504,3.808 8.504,8.504 V -8.504 C 8.504,-3.807 4.697,0 0,0 m 0,-3 c 3.035,0 5.504,-2.469 5.504,-5.504 v -17.008 c 0,-3.035 -2.469,-5.504 -5.504,-5.504 h -119.055 c -3.035,0 -5.504,2.469 -5.504,5.504 v 17.008 c 0,3.035 2.469,5.504 5.504,5.504 z"
             style="fill:#ff7f0e;fill-opacity:1;fill-rule:nonzero;stroke:none"
             transform="matrix(0.56696,0,0,-0.56696,129.51092,71.458642)"
             clip-path="url(#clipPath45)"
             id="path168" />
          <path
             d="m 0,0 c -3.862,0 -7.004,3.142 -7.004,7.004 v 17.008 c 0,3.862 3.142,7.004 7.004,7.004 h 119.055 c 3.862,0 7.004,-3.142 7.004,-7.004 V 7.004 C 126.059,3.142 122.917,0 119.055,0 Z"
             style="fill:#ffbf86;fill-opacity:1;fill-rule:nonzero;stroke:none"
             transform="matrix(0.56696,0,0,-0.56696,87.725572,122.03641)"
             clip-path="url(#clipPath46)"
             id="path169" />
          <path
             d="m 0,0 h -119.055 c -4.697,0 -8.504,-3.807 -8.504,-8.504 v -17.008 c 0,-4.696 3.807,-8.504 8.504,-8.504 H 0 c 4.697,0 8.504,3.808 8.504,8.504 V -8.504 C 8.504,-3.807 4.697,0 0,0 m 0,-3 c 3.035,0 5.504,-2.469 5.504,-5.504 v -17.008 c 0,-3.035 -2.469,-5.504 -5.504,-5.504 h -119.055 c -3.035,0 -5.504,2.469 -5.504,5.504 v 17.008 c 0,3.035 2.469,5.504 5.504,5.504 z"
             style="fill:#ff7f0e;fill-opacity:1;fill-rule:nonzero;stroke:none"
             transform="matrix(0.56696,0,0,-0.56696,155.22505,103.60125)"
             clip-path="url(#clipPath47)"
             id="path170" />
          <path
             d="m 0,0 c -3.862,0 -7.004,3.142 -7.004,7.004 v 17.008 c 0,3.862 3.142,7.004 7.004,7.004 h 209.764 c 3.862,0 7.004,-3.142 7.004,-7.004 V 7.004 C 216.768,3.142 213.626,0 209.764,0 Z"
             style="fill:#ffbf86;fill-opacity:1;fill-rule:nonzero;stroke:none"
             transform="matrix(0.56696,0,0,-0.56696,36.297198,179.89297)"
             clip-path="url(#clipPath48)"
             id="path171" />
          <path
             d="m 0,0 h -209.764 c -4.696,0 -8.504,-3.807 -8.504,-8.504 v -17.008 c 0,-4.696 3.808,-8.504 8.504,-8.504 H 0 c 4.697,0 8.504,3.808 8.504,8.504 V -8.504 C 8.504,-3.807 4.697,0 0,0 m 0,-3 c 3.035,0 5.504,-2.469 5.504,-5.504 v -17.008 c 0,-3.035 -2.469,-5.504 -5.504,-5.504 h -209.764 c -3.035,0 -5.504,2.469 -5.504,5.504 v 17.008 c 0,3.035 2.469,5.504 5.504,5.504 z"
             style="fill:#ff7f0e;fill-opacity:1;fill-rule:nonzero;stroke:none"
             transform="matrix(0.56696,0,0,-0.56696,155.22505,161.45793)"
             clip-path="url(#clipPath49)"
             id="path172" />
          <path
             d="m 0,0 c -3.862,0 -7.004,3.142 -7.004,7.004 v 17.008 c 0,3.862 3.142,7.004 7.004,7.004 h 255.118 c 3.862,0 7.004,-3.142 7.004,-7.004 V 7.004 C 262.122,3.142 258.98,0 255.118,0 Z"
             style="fill:#8fbbda;fill-opacity:1;fill-rule:nonzero;stroke:none"
             transform="matrix(0.56696,0,0,-0.56696,113.43948,57.75125)"
             clip-path="url(#clipPath50)"
             id="path173" />
          <path
             d="m 0,0 h -255.118 c -4.697,0 -8.504,-3.807 -8.504,-8.504 v -17.008 c 0,-4.696 3.807,-8.504 8.504,-8.504 H 0 c 4.697,0 8.504,3.808 8.504,8.504 V -8.504 C 8.504,-3.807 4.697,0 0,0 m 0,-3 c 3.035,0 5.504,-2.469 5.504,-5.504 v -17.008 c 0,-3.035 -2.469,-5.504 -5.504,-5.504 h -255.118 c -3.035,0 -5.504,2.469 -5.504,5.504 v 17.008 c 0,3.035 2.469,5.504 5.504,5.504 z"
             style="fill:#1f77b4;fill-opacity:1;fill-rule:nonzero;stroke:none"
             transform="matrix(0.56696,0,0,-0.56696,258.0814,39.316036)"
             clip-path="url(#clipPath51)"
             id="path174" />
          <g
             opacity="0"
             clip-path="url(#clipPath53)"
             id="g175">
            <path
               d="M 0,0 C 0,0 0,0 0,0 0,0 0,0 0,0 0,0 0,0 0,0 0,0 0,0 0,0 0,0 0,0 0,0 0,0 0,0 0,0 0,0 0,0 0,0 0,0 0,0 0,0 0,0 0,0 0,0 0,0 0,0 0,0 0,0 0,0 0,0 0,0 0,0 0,0 0,0 0,0 0,0 0,0 0,0 0,0 0,0 0,0 0,0 0,0 0,0 0,0 0,0 0,0 0,0 0,0 0,0 0,0 0,0 0,0 0,0 0,0 0,0 0,0 0,0 0,0 0,0 0,0 0,0 0,0 0,0 0,0 0,0 0,0 0,0 0,0 0,0 0,0 0,0 0,0 0,0 0,0 0,0 0,0 0,0 0,0 0,0 0,0 0,0 0,0 0,0 0,0 0,0 0,0 0,0 0,0 0,0 0,0 0,0 0,0 0,0 0,0 0,0 0,0 0,0 0,0 0,0 0,0 0,0 0,0 0,0 0,0 0,0 0,0 0,0 0,0 0,0 0,0 0,0 0,0 0,0 0,0 0,0 0,0 0,0 0,0 0,0 0,0 0,0 0,0 0,0 0,0 0,0 0,0 0,0 0,0 0,0 0,0 0,0 0,0 0,0 0,0 0,0 0,0 0,0 0,0 0,0 0,0 0,0 0,0 0,0 0,0 0,0 0,0 0,0 0,0 0,0 0,0 0,0 0,0 V 0 C 0,0 0,0 0,0 0,0 0,0 0,0 0,0 0,0 0,0 0,0 0,0 0,0 0,0 0,0 0,0 0,0 0,0 0,0 0,0 0,0 0,0 0,0 0,0 0,0 0,0 0,0 0,0 0,0 0,0 0,0 0,0 0,0 0,0 0,0 0,0 0,0 0,0 0,0 0,0 0,0 0,0 0,0 0,0 0,0 0,0 0,0 0,0 0,0 0,0 0,0 0,0 0,0 0,0 0,0 0,0 0,0 0,0 0,0 0,0 0,0 0,0 0,0 0,0 0,0 0,0 0,0 0,0 0,0 0,0 0,0 0,0 0,0 0,0 0,0 0,0 0,0 0,0 0,0 0,0 0,0 0,0 0,0 0,0 0,0 0,0 0,0 0,0 0,0 0,0 0,0 0,0 0,0 0,0 0,0 0,0 0,0 0,0 0,0 0,0 0,0 0,0 0,0 0,0 0,0 0,0 0,0 0,0 0,0 Z"
               style="fill:none;stroke:#000000;stroke-width:1;stroke-linecap:butt;stroke-linejoin:miter;stroke-miterlimit:10;stroke-dasharray:none;stroke-opacity:1"
               transform="matrix(0.56696,0,0,-0.56696,72.235998,154.19897)"
               clip-path="url(#clipPath52)"
               id="path175" />
          </g>
          <g
             opacity="0"
             clip-path="url(#clipPath55)"
             id="g176">
            <path
               d="M 0,0 C 0,0 0,0 0,0 0,0 0,0 0,0 0,0 0,0 0,0 0,0 0,0 0,0 0,0 0,0 0,0 0,0 0,0 0,0 0,0 0,0 0,0 0,0 0,0 0,0 0,0 0,0 0,0 0,0 0,0 0,0 0,0 0,0 0,0 0,0 0,0 0,0 0,0 0,0 0,0 0,0 0,0 0,0 0,0 0,0 0,0 0,0 0,0 0,0 0,0 0,0 0,0 0,0 0,0 0,0 0,0 0,0 0,0 0,0 0,0 0,0 0,0 0,0 0,0 0,0 0,0 0,0 0,0 0,0 0,0 0,0 0,0 0,0 0,0 0,0 0,0 0,0 0,0 0,0 0,0 0,0 0,0 0,0 0,0 0,0 0,0 0,0 0,0 0,0 0,0 0,0 0,0 0,0 0,0 0,0 0,0 0,0 0,0 0,0 0,0 0,0 0,0 0,0 0,0 0,0 0,0 0,0 0,0 0,0 0,0 0,0 0,0 0,0 0,0 0,0 0,0 0,0 0,0 0,0 0,0 0,0 0,0 0,0 0,0 0,0 0,0 0,0 0,0 0,0 0,0 0,0 0,0 0,0 0,0 0,0 0,0 0,0 0,0 0,0 0,0 0,0 0,0 0,0 0,0 0,0 0,0 0,0 0,0 0,0 0,0 0,0 0,0 0,0 0,0 0,0 0,0 0,0 0,0 0,0 0,0 0,0 0,0 0,0 0,0 0,0 0,0 0,0 0,0 0,0 0,0 0,0 0,0 0,0 0,0 0,0 0,0 0,0 0,0 0,0 0,0 0,0 0,0 0,0 0,0 0,0 0,0 0,0 0,0 0,0 0,0 0,0 0,0 0,0 0,0 0,0 0,0 0,0 0,0 0,0 0,0 0,0 0,0 0,0 0,0 0,0 0,0 0,0 0,0 0,0 0,0 0,0 0,0 0,0 0,0 0,0 0,0 0,0 0,0 0,0 0,0 0,0 0,0 0,0 0,0 0,0 0,0 0,0 0,0 0,0 0,0 0,0 0,0 0,0 0,0 0,0 0,0 0,0 0,0 0,0 0,0 0,0 0,0 0,0 0,0 0,0 0,0 0,0 0,0 0,0 0,0 0,0 0,0 0,0 0,0 0,0 0,0 0,0 0,0 0,0 0,0 0,0 0,0 0,0 0,0 0,0 0,0 0,0 0,0 Z"
               style="fill:none;stroke:#000000;stroke-width:1;stroke-linecap:butt;stroke-linejoin:miter;stroke-miterlimit:10;stroke-dasharray:none;stroke-opacity:1"
               transform="matrix(0.56696,0,0,-0.56696,3.9073965,168.46538)"
               clip-path="url(#clipPath54)"
               id="path176" />
          </g>
          <g
             clip-path="url(#clipPath57)"
             id="g178">
            <g
               opacity="0"
               clip-path="url(#clipPath56)"
               id="g177" />
          </g>
          <path
             d="m 0,0 c -0.527,-1.139 -0.701,-2.036 -0.701,-3.153 0,-0.547 0,-3.636 2.868,-3.636 1.074,0 1.774,0.636 2.191,1.183 0.481,0.679 0.569,1.161 0.809,2.365 0.153,0.788 0.416,2.058 1.577,2.058 1.511,0 1.511,-1.729 1.511,-2.058 0,-1.773 -0.81,-3 -1.072,-3.393 l 1.489,-0.264 c 0.35,0.701 0.962,1.906 0.962,3.679 0,0.394 0,1.599 -0.7,2.541 C 8.408,0 7.533,0.372 6.591,0.372 5.386,0.372 4.642,-0.437 4.577,-0.481 3.809,-1.336 3.678,-1.927 3.481,-3.022 3.241,-4.227 3.022,-5.233 1.949,-5.233 c -1.358,0 -1.358,1.577 -1.358,1.861 0,0.7 0.087,1.861 0.833,3.11 z"
             style="fill:#000000;fill-opacity:1;fill-rule:nonzero;stroke:none"
             transform="matrix(0.56696,0,0,-0.56696,4.4702744,189.63414)"
             clip-path="url(#clipPath58)"
             id="path178" />
          <path
             d="m 0,0 c -1.445,0 -3.439,-0.328 -3.439,-3 0,-1.97 1.489,-3.044 1.666,-3.175 h -1.555 v -1.577 h 9.853 v 1.708 H 1.159 c -1.443,0 -3.262,0.549 -3.262,2.213 0,2.101 1.555,2.123 2.256,2.123 h 6.372 l 0,1.708 z"
             style="fill:#000000;fill-opacity:1;fill-rule:nonzero;stroke:none"
             transform="matrix(0.56696,0,0,-0.56696,6.0967693,183.72976)"
             clip-path="url(#clipPath59)"
             id="path179" />
          <path
             d="m 0,0 c -2.234,0 -3.767,-1.598 -3.767,-3.614 0,-1.424 0.351,-2.408 0.942,-3.438 l 1.445,0.132 c -0.811,1.139 -1.095,2.234 -1.095,3.306 0,1.03 0.876,1.906 2.497,1.906 h 0.94 c 0.044,-3.286 0.964,-6.065 2.891,-6.065 0.942,0 2.716,0.59 2.716,2.495 0,0.306 -0.044,2.365 -1.03,3.636 h 0.789 l 0,1.642 z m 3.438,-1.708 c 0.415,0 0.964,0 1.379,-0.745 0.394,-0.634 0.416,-1.467 0.416,-1.708 0,-1.051 -0.503,-2.036 -1.424,-2.036 -1.532,0 -1.686,3.547 -1.729,4.489 z"
             style="fill:#000000;fill-opacity:1;fill-rule:nonzero;stroke:none"
             transform="matrix(0.56696,0,0,-0.56696,6.2084037,177.7129)"
             clip-path="url(#clipPath60)"
             id="path180" />
          <path
             d="m 0,0 c 0.636,0.68 1.248,1.642 1.248,2.956 0,2.125 -2.145,4.052 -5.123,4.052 -2.628,0 -5.081,-1.38 -5.081,-3.481 0,-1.314 0.461,-2.585 1.314,-3.593 h -1.072 v -1.642 h 13.97 l 0,1.708 z m -6.284,0 c -0.766,0.527 -1.271,1.38 -1.271,2.322 0,1.664 1.664,2.978 3.68,2.978 2.255,0 3.788,-1.555 3.788,-3.197 0,-0.854 -0.438,-1.445 -1.029,-1.884 C -1.445,0 -1.489,0 -1.883,0 Z"
             style="fill:#000000;fill-opacity:1;fill-rule:nonzero;stroke:none"
             transform="matrix(0.56696,0,0,-0.56696,9.224801,174.72751)"
             clip-path="url(#clipPath61)"
             id="path181" />
          <path
             d="m 0,0 c -0.527,-1.139 -0.701,-2.036 -0.701,-3.153 0,-0.547 0,-3.636 2.868,-3.636 1.074,0 1.774,0.636 2.191,1.183 0.481,0.68 0.569,1.161 0.809,2.365 0.153,0.788 0.416,2.058 1.577,2.058 1.511,0 1.511,-1.729 1.511,-2.058 0,-1.773 -0.81,-3 -1.072,-3.393 l 1.489,-0.264 c 0.35,0.701 0.962,1.906 0.962,3.679 0,0.394 0,1.599 -0.7,2.541 C 8.408,0 7.533,0.372 6.591,0.372 5.386,0.372 4.642,-0.437 4.577,-0.481 3.809,-1.336 3.678,-1.926 3.481,-3.022 3.241,-4.226 3.022,-5.233 1.949,-5.233 c -1.358,0 -1.358,1.577 -1.358,1.861 0,0.7 0.087,1.861 0.833,3.11 z"
             style="fill:#000000;fill-opacity:1;fill-rule:nonzero;stroke:none"
             transform="matrix(0.56696,0,0,-0.56696,4.4702744,166.0486)"
             clip-path="url(#clipPath62)"
             id="path182" />
          <path
             d="m 0,0 c -1.445,0 -3.439,-0.328 -3.439,-3 0,-1.358 0.68,-2.408 1.576,-3.109 H -8.672 V -7.752 H 6.525 v 1.708 H 1.159 c -1.443,0 -3.262,0.549 -3.262,2.213 0,2.101 1.555,2.123 2.256,2.123 h 6.372 l 0,1.708 z"
             style="fill:#000000;fill-opacity:1;fill-rule:nonzero;stroke:none"
             transform="matrix(0.56696,0,0,-0.56696,6.0967693,160.14423)"
             clip-path="url(#clipPath63)"
             id="path183" />
          <path
             d="m 0,0 c -2.934,0 -5.278,-2.191 -5.278,-4.795 0,-2.694 2.409,-4.819 5.278,-4.819 2.891,0 5.058,2.234 5.058,4.797 C 5.058,-2.191 2.847,0 0,0 m 3.656,-4.817 c 0,-1.511 -1.226,-3.088 -3.875,-3.088 -2.65,0 -3.723,1.664 -3.723,3.088 0,1.533 1.139,3.109 3.723,3.109 2.583,0 3.875,-1.489 3.875,-3.109"
             style="fill:#000000;fill-opacity:1;fill-rule:nonzero;stroke:none"
             transform="matrix(0.56696,0,0,-0.56696,7.0650235,153.31502)"
             clip-path="url(#clipPath64)"
             id="path184" />
          <path
             d="M 0,0 V 3.087 H -1.269 V 0 H -4.05 v -1.511 h 2.781 V -3.417 H 0 v 1.839 h 5.847 c 1.314,0 2.847,0.308 2.847,1.819 0,1.532 -0.547,2.648 -0.831,3.197 L 6.57,3.087 C 7.03,2.517 7.292,1.817 7.292,1.116 7.292,0.306 6.636,0 5.475,0 Z"
             style="fill:#000000;fill-opacity:1;fill-rule:nonzero;stroke:none"
             transform="matrix(0.56696,0,0,-0.56696,5.0036137,150.72827)"
             clip-path="url(#clipPath65)"
             id="path185" />
          <path
             d="m 0,0 v -1.642 h 15.197 v 1.708 h -1.008 c 0.483,0.526 1.249,1.467 1.249,2.934 0,2.191 -2.19,4.073 -5.124,4.073 C 7.598,7.073 5.233,5.584 5.233,3.527 5.233,2.672 5.453,1.314 6.525,0 Z M 7.861,0.066 C 7.336,0.417 6.569,1.205 6.569,2.409 c 0,1.293 0.942,2.957 3.745,2.957 2.847,0 3.788,-1.839 3.788,-3.175 0,-0.855 -0.394,-1.577 -1.402,-2.125 z"
             style="fill:#000000;fill-opacity:1;fill-rule:nonzero;stroke:none"
             transform="matrix(0.56696,0,0,-0.56696,16.091197,183.72268)"
             clip-path="url(#clipPath66)"
             id="path186" />
          <path
             d="m 0,0 c -2.234,0 -3.767,-1.598 -3.767,-3.614 0,-1.424 0.351,-2.408 0.942,-3.438 l 1.445,0.132 c -0.811,1.139 -1.095,2.234 -1.095,3.306 0,1.03 0.877,1.906 2.497,1.906 h 0.94 c 0.044,-3.286 0.965,-6.065 2.891,-6.065 0.942,0 2.716,0.59 2.716,2.495 0,0.306 -0.044,2.365 -1.03,3.636 h 0.789 l 0,1.642 z m 3.438,-1.708 c 0.415,0 0.964,0 1.379,-0.745 0.394,-0.634 0.416,-1.467 0.416,-1.708 0,-1.051 -0.503,-2.036 -1.424,-2.036 -1.532,0 -1.686,3.547 -1.729,4.489 z"
             style="fill:#000000;fill-opacity:1;fill-rule:nonzero;stroke:none"
             transform="matrix(0.56696,0,0,-0.56696,21.119452,174.31114)"
             clip-path="url(#clipPath67)"
             id="path187" />
          <path
             d="m 0,0 c -0.527,-1.139 -0.702,-2.036 -0.702,-3.153 0,-0.547 0,-3.636 2.869,-3.636 1.074,0 1.774,0.636 2.191,1.183 0.481,0.68 0.569,1.161 0.809,2.365 0.153,0.788 0.416,2.058 1.577,2.058 1.511,0 1.511,-1.73 1.511,-2.058 0,-1.773 -0.81,-3 -1.072,-3.393 l 1.489,-0.264 c 0.35,0.701 0.962,1.906 0.962,3.679 0,0.394 0,1.599 -0.7,2.541 C 8.408,0 7.533,0.372 6.591,0.372 5.386,0.372 4.642,-0.437 4.577,-0.481 3.809,-1.336 3.678,-1.926 3.481,-3.022 3.241,-4.227 3.022,-5.233 1.948,-5.233 c -1.357,0 -1.357,1.577 -1.357,1.861 0,0.7 0.087,1.861 0.832,3.109 z"
             style="fill:#000000;fill-opacity:1;fill-rule:nonzero;stroke:none"
             transform="matrix(0.56696,0,0,-0.56696,19.381379,169.05349)"
             clip-path="url(#clipPath68)"
             id="path188" />
          <path
             d="M 0,0 C -0.745,0 -2.388,-0.022 -3.702,-0.876 -5.058,-1.773 -5.3,-3.109 -5.3,-3.898 c 0,-2.43 2.322,-4.4 5.147,-4.4 2.89,0 5.189,2.101 5.189,4.729 0,1.38 -0.525,2.627 -1.139,3.481 L 2.473,-0.219 C 3.612,-1.598 3.7,-3.044 3.7,-3.547 3.7,-5.3 2.145,-6.7 0,-6.766 Z m -1.205,-6.656 c -1.664,0.35 -2.759,1.511 -2.759,2.758 0,1.139 0.745,2.365 2.759,2.65 z"
             style="fill:#000000;fill-opacity:1;fill-rule:nonzero;stroke:none"
             transform="matrix(0.56696,0,0,-0.56696,21.988488,163.40958)"
             clip-path="url(#clipPath69)"
             id="path189" />
          <path
             d="M 0,0 V -1.642 H 6.438 C 5.475,-2.803 5.233,-4.028 5.233,-4.839 c 0,-2.167 2.278,-3.875 5.103,-3.875 2.869,0 5.102,1.686 5.102,3.766 0,0.721 -0.197,2.014 -1.38,3.24 h 1.139 V 0 Z m 12.153,-1.708 c 0.306,0 0.7,-0.022 1.336,-0.722 0.438,-0.504 0.613,-1.051 0.613,-1.62 0,-1.358 -1.029,-2.956 -3.744,-2.956 -2.891,0 -3.789,1.883 -3.789,3.175 0,0.984 0.504,1.642 1.204,2.123 z"
             style="fill:#000000;fill-opacity:1;fill-rule:nonzero;stroke:none"
             transform="matrix(0.56696,0,0,-0.56696,16.091197,157.60532)"
             clip-path="url(#clipPath70)"
             id="path190" />
          <g
             clip-path="url(#clipPath72)"
             id="g191">
            <g
               opacity="0"
               clip-path="url(#clipPath71)"
               id="g190" />
          </g>
          <path
             d="m 0,0 c -0.527,-1.139 -0.701,-2.036 -0.701,-3.153 0,-0.547 0,-3.636 2.868,-3.636 1.074,0 1.774,0.636 2.191,1.183 0.481,0.679 0.569,1.161 0.809,2.365 0.153,0.788 0.416,2.058 1.577,2.058 1.511,0 1.511,-1.729 1.511,-2.058 0,-1.773 -0.81,-3 -1.072,-3.393 l 1.489,-0.264 c 0.35,0.701 0.962,1.906 0.962,3.679 0,0.394 0,1.599 -0.7,2.541 C 8.408,0 7.533,0.372 6.591,0.372 5.386,0.372 4.642,-0.437 4.577,-0.481 3.809,-1.336 3.678,-1.927 3.481,-3.022 3.241,-4.227 3.022,-5.233 1.949,-5.233 c -1.358,0 -1.358,1.577 -1.358,1.861 0,0.7 0.087,1.861 0.833,3.11 z"
             style="fill:#000000;fill-opacity:1;fill-rule:nonzero;stroke:none"
             transform="matrix(0.56696,0,0,-0.56696,4.1867944,102.18612)"
             clip-path="url(#clipPath73)"
             id="path191" />
          <path
             d="M 0,0 V 3.088 H -1.269 V 0 H -4.05 v -1.511 h 2.781 V -3.417 H 0 v 1.839 h 5.847 c 1.314,0 2.847,0.308 2.847,1.819 0,1.532 -0.547,2.648 -0.831,3.197 L 6.57,3.088 C 7.03,2.517 7.292,1.817 7.292,1.116 7.292,0.306 6.636,0 5.475,0 Z"
             style="fill:#000000;fill-opacity:1;fill-rule:nonzero;stroke:none"
             transform="matrix(0.56696,0,0,-0.56696,4.7201337,99.509045)"
             clip-path="url(#clipPath74)"
             id="path192" />
          <path
             d="m 0,0 c -2.191,0 -3.767,1.577 -3.811,3.723 h -1.467 c 0.022,-1.95 1.095,-3.153 2.103,-3.832 H -5.167 V -1.642 H 4.686 V 0 Z"
             style="fill:#000000;fill-opacity:1;fill-rule:nonzero;stroke:none"
             transform="matrix(0.56696,0,0,-0.56696,6.8559854,95.25418)"
             clip-path="url(#clipPath75)"
             id="path193" />
          <path
             d="M 0,0 C -0.745,0 -2.387,-0.022 -3.702,-0.876 -5.058,-1.773 -5.3,-3.109 -5.3,-3.898 c 0,-2.43 2.322,-4.4 5.147,-4.4 2.891,0 5.189,2.101 5.189,4.729 0,1.38 -0.525,2.627 -1.139,3.482 L 2.473,-0.219 C 3.613,-1.598 3.7,-3.044 3.7,-3.547 3.7,-5.3 2.145,-6.7 0,-6.766 Z m -1.205,-6.656 c -1.664,0.35 -2.759,1.511 -2.759,2.758 0,1.139 0.745,2.365 2.759,2.65 z"
             style="fill:#000000;fill-opacity:1;fill-rule:nonzero;stroke:none"
             transform="matrix(0.56696,0,0,-0.56696,6.79396,87.811073)"
             clip-path="url(#clipPath76)"
             id="path194" />
          <path
             d="m 0,0 c -2.234,0 -3.767,-1.598 -3.767,-3.614 0,-1.424 0.351,-2.408 0.942,-3.438 l 1.445,0.132 c -0.811,1.139 -1.095,2.234 -1.095,3.306 0,1.03 0.876,1.906 2.497,1.906 h 0.94 c 0.044,-3.286 0.964,-6.065 2.891,-6.065 0.942,0 2.716,0.59 2.716,2.495 0,0.306 -0.044,2.365 -1.03,3.636 h 0.789 l 0,1.642 z m 3.438,-1.708 c 0.415,0 0.964,0 1.379,-0.745 0.394,-0.635 0.416,-1.467 0.416,-1.708 0,-1.052 -0.503,-2.036 -1.424,-2.036 -1.532,0 -1.686,3.547 -1.729,4.489 z"
             style="fill:#000000;fill-opacity:1;fill-rule:nonzero;stroke:none"
             transform="matrix(0.56696,0,0,-0.56696,5.9249237,82.440884)"
             clip-path="url(#clipPath77)"
             id="path195" />
          <path
             d="m 0,0 c -1.467,0 -3.439,-0.35 -3.439,-3 0,-1.314 0.614,-2.452 1.797,-3.262 -1.664,-0.569 -1.797,-2.102 -1.797,-2.804 0,-1.576 0.898,-2.604 1.687,-3.196 h -1.576 v -1.577 h 9.853 v 1.708 H 1.159 c -1.489,0 -3.262,0.592 -3.262,2.212 0,2.036 1.423,2.146 2.256,2.146 h 6.372 v 1.707 H 1.159 c -1.489,0 -3.262,0.593 -3.262,2.213 0,2.036 1.423,2.145 2.256,2.145 h 6.372 l 0,1.708 z"
             style="fill:#000000;fill-opacity:1;fill-rule:nonzero;stroke:none"
             transform="matrix(0.56696,0,0,-0.56696,5.8132893,72.589954)"
             clip-path="url(#clipPath78)"
             id="path196" />
          <path
             d="m 3.064,262.2 h 1.948 v 1.949 H 3.064 Z m 5.168,0.153 h 9.722 v 1.642 H 8.232 Z"
             style="fill:#000000;fill-opacity:1;fill-rule:nonzero;stroke:none"
             transform="matrix(0.56696,0,0,-0.56696,-0.66666667,219.31467)"
             clip-path="url(#clipPath79)"
             id="path197" />
          <path
             d="m 0,0 c -1.445,0 -3.439,-0.328 -3.439,-3 0,-1.97 1.489,-3.044 1.666,-3.175 h -1.555 v -1.577 h 9.853 v 1.708 H 1.159 c -1.443,0 -3.262,0.549 -3.262,2.213 0,2.101 1.555,2.123 2.256,2.123 h 6.372 l 0,1.708 z"
             style="fill:#000000;fill-opacity:1;fill-rule:nonzero;stroke:none"
             transform="matrix(0.56696,0,0,-0.56696,5.8132893,63.228027)"
             clip-path="url(#clipPath80)"
             id="path198" />
          <path
             d="m 0,0 c 0,0.481 -0.087,1.095 -0.087,1.62 0,0.394 0.065,1.249 0.065,1.293 l -1.38,-0.241 c 0,-1.533 0.418,-2.803 0.702,-3.459 -0.372,-0.461 -0.702,-1.205 -0.702,-2.082 0,-1.882 1.577,-3.481 3.571,-3.481 0.809,0 1.598,0.284 2.167,0.722 0.898,-0.634 1.752,-0.634 1.861,-0.634 0.57,0 1.205,0.196 1.666,0.568 0.678,-1.137 1.685,-1.401 2.254,-1.401 1.642,0 2.956,2.169 2.956,4.84 0,2.692 -1.292,4.861 -2.978,4.861 -3.043,0 -3.043,-3.657 -3.043,-4.511 v -1.926 c 0,-0.286 0,-1.27 -1.161,-1.27 -0.241,0 -0.591,0.087 -0.788,0.24 0.328,0.46 0.635,1.183 0.635,1.992 0,1.971 -1.621,3.503 -3.569,3.503 -1.052,0 -1.861,-0.481 -2.191,-0.721 z m 4.489,-2.869 c 0,-0.809 -0.503,-1.948 -2.32,-1.948 -1.817,0 -2.322,1.139 -2.322,1.948 0,0.943 0.614,1.971 2.322,1.971 1.708,0 2.32,-1.028 2.32,-1.971 m 4.139,0.986 c 0,0.482 0,2.957 1.511,2.957 0.964,0 1.686,-1.511 1.686,-3.307 0,-1.775 -0.678,-3.329 -1.708,-3.329 -0.065,0 -1.489,0 -1.489,1.709 z"
             style="fill:#000000;fill-opacity:1;fill-rule:nonzero;stroke:none"
             transform="matrix(0.56696,0,0,-0.56696,4.6581083,57.851659)"
             clip-path="url(#clipPath81)"
             id="path199" />
          <path
             d="m 0,0 v -1.642 h 15.197 v 1.708 h -1.008 c 0.483,0.526 1.249,1.467 1.249,2.934 0,2.191 -2.19,4.073 -5.124,4.073 C 7.598,7.073 5.233,5.584 5.233,3.527 5.233,2.672 5.453,1.314 6.525,0 Z M 7.861,0.066 C 7.336,0.417 6.569,1.205 6.569,2.409 c 0,1.293 0.942,2.957 3.745,2.957 2.847,0 3.788,-1.839 3.788,-3.175 0,-0.855 -0.394,-1.577 -1.402,-2.125 z"
             style="fill:#000000;fill-opacity:1;fill-rule:nonzero;stroke:none"
             transform="matrix(0.56696,0,0,-0.56696,15.807717,93.780084)"
             clip-path="url(#clipPath82)"
             id="path200" />
          <path
             d="m 0,0 c -2.234,0 -3.767,-1.598 -3.767,-3.614 0,-1.423 0.351,-2.408 0.942,-3.438 l 1.445,0.132 c -0.811,1.139 -1.095,2.234 -1.095,3.306 0,1.03 0.877,1.906 2.497,1.906 h 0.94 c 0.044,-3.286 0.965,-6.065 2.891,-6.065 0.942,0 2.716,0.59 2.716,2.495 0,0.306 -0.044,2.366 -1.03,3.636 h 0.789 l 0,1.642 z m 3.438,-1.708 c 0.415,0 0.964,0 1.379,-0.745 0.394,-0.634 0.416,-1.467 0.416,-1.708 0,-1.051 -0.503,-2.036 -1.424,-2.036 -1.532,0 -1.686,3.547 -1.729,4.489 z"
             style="fill:#000000;fill-opacity:1;fill-rule:nonzero;stroke:none"
             transform="matrix(0.56696,0,0,-0.56696,20.835972,84.368548)"
             clip-path="url(#clipPath83)"
             id="path201" />
          <path
             d="m 0,0 c -0.527,-1.139 -0.702,-2.036 -0.702,-3.153 0,-0.547 0,-3.636 2.869,-3.636 1.074,0 1.774,0.636 2.191,1.183 0.481,0.68 0.569,1.161 0.809,2.365 0.153,0.788 0.416,2.058 1.577,2.058 1.511,0 1.511,-1.73 1.511,-2.058 0,-1.773 -0.81,-3 -1.072,-3.393 l 1.489,-0.264 c 0.35,0.701 0.962,1.906 0.962,3.679 0,0.394 0,1.599 -0.7,2.541 C 8.408,0 7.533,0.372 6.591,0.372 5.386,0.372 4.642,-0.437 4.577,-0.481 3.809,-1.336 3.678,-1.926 3.481,-3.022 3.241,-4.227 3.022,-5.233 1.948,-5.233 c -1.357,0 -1.357,1.577 -1.357,1.861 0,0.7 0.087,1.861 0.832,3.11 z"
             style="fill:#000000;fill-opacity:1;fill-rule:nonzero;stroke:none"
             transform="matrix(0.56696,0,0,-0.56696,19.097899,79.110901)"
             clip-path="url(#clipPath84)"
             id="path202" />
          <path
             d="M 0,0 C -0.745,0 -2.388,-0.022 -3.702,-0.877 -5.058,-1.773 -5.3,-3.109 -5.3,-3.898 c 0,-2.43 2.322,-4.4 5.147,-4.4 2.89,0 5.189,2.101 5.189,4.729 0,1.38 -0.525,2.627 -1.139,3.481 L 2.473,-0.219 C 3.612,-1.598 3.7,-3.044 3.7,-3.547 3.7,-5.3 2.145,-6.7 0,-6.766 Z m -1.205,-6.656 c -1.664,0.35 -2.759,1.511 -2.759,2.758 0,1.139 0.745,2.365 2.759,2.65 z"
             style="fill:#000000;fill-opacity:1;fill-rule:nonzero;stroke:none"
             transform="matrix(0.56696,0,0,-0.56696,21.705008,73.466985)"
             clip-path="url(#clipPath85)"
             id="path203" />
          <path
             d="M 0,0 V -1.642 H 6.438 C 5.475,-2.803 5.233,-4.028 5.233,-4.839 c 0,-2.167 2.278,-3.875 5.103,-3.875 2.869,0 5.102,1.686 5.102,3.766 0,0.721 -0.197,2.014 -1.38,3.24 h 1.139 V 0 Z m 12.153,-1.708 c 0.306,0 0.7,-0.022 1.336,-0.722 0.438,-0.504 0.613,-1.051 0.613,-1.62 0,-1.358 -1.029,-2.956 -3.744,-2.956 -2.891,0 -3.789,1.883 -3.789,3.175 0,0.984 0.504,1.642 1.204,2.123 z"
             style="fill:#000000;fill-opacity:1;fill-rule:nonzero;stroke:none"
             transform="matrix(0.56696,0,0,-0.56696,15.807717,67.662732)"
             clip-path="url(#clipPath86)"
             id="path204" />
          <g
             clip-path="url(#clipPath88)"
             id="g205">
            <path
               d="m 0,0 c -3.862,0 -7.004,3.142 -7.004,7.004 v 17.008 c 0,3.862 3.142,7.004 7.004,7.004 h 119.055 c 3.862,0 7.004,-3.142 7.004,-7.004 V 7.004 C 126.059,3.142 122.917,0 119.055,0 Z"
               style="fill:#ffbf86;fill-opacity:1;fill-rule:nonzero;stroke:none"
               transform="matrix(0.56696,0,0,-0.56696,36.297198,57.75125)"
               clip-path="url(#clipPath87)"
               id="path205" />
          </g>
          <path
             d="m 0,0 h -119.055 c -4.697,0 -8.504,-3.807 -8.504,-8.504 v -17.008 c 0,-4.696 3.807,-8.504 8.504,-8.504 H 0 c 4.697,0 8.504,3.808 8.504,8.504 V -8.504 C 8.504,-3.807 4.697,0 0,0 m 0,-3 c 3.035,0 5.504,-2.469 5.504,-5.504 v -17.008 c 0,-3.035 -2.469,-5.504 -5.504,-5.504 h -119.055 c -3.035,0 -5.504,2.469 -5.504,5.504 v 17.008 c 0,3.035 2.469,5.504 5.504,5.504 z"
             style="fill:#ff7f0e;fill-opacity:1;fill-rule:nonzero;stroke:none"
             transform="matrix(0.56696,0,0,-0.56696,103.79685,39.316036)"
             clip-path="url(#clipPath89)"
             id="path206" />
          <path
             d="m 0,0 c -3.862,0 -7.004,3.142 -7.004,7.004 v 17.008 c 0,3.862 3.142,7.004 7.004,7.004 h 255.118 c 3.862,0 7.004,-3.142 7.004,-7.004 V 7.004 C 262.122,3.142 258.98,0 255.118,0 Z"
             style="fill:#8fbbda;fill-opacity:1;fill-rule:nonzero;stroke:none"
             transform="matrix(0.56696,0,0,-0.56696,139.15366,89.893857)"
             clip-path="url(#clipPath90)"
             id="path207" />
          <path
             d="m 0,0 h -255.118 c -4.697,0 -8.504,-3.807 -8.504,-8.504 v -17.008 c 0,-4.696 3.807,-8.504 8.504,-8.504 H 0 c 4.697,0 8.504,3.808 8.504,8.504 V -8.504 C 8.504,-3.807 4.697,0 0,0 m 0,-3 c 3.035,0 5.504,-2.469 5.504,-5.504 v -17.008 c 0,-3.035 -2.469,-5.504 -5.504,-5.504 h -255.118 c -3.035,0 -5.504,2.469 -5.504,5.504 v 17.008 c 0,3.035 2.469,5.504 5.504,5.504 z"
             style="fill:#1f77b4;fill-opacity:1;fill-rule:nonzero;stroke:none"
             transform="matrix(0.56696,0,0,-0.56696,283.79548,71.458642)"
             clip-path="url(#clipPath91)"
             id="path208" />
          <path
             d=""
             style="fill:#000000;fill-opacity:1;fill-rule:nonzero;stroke:none"
             aria-label="       "
             transform="matrix(0.56696,0,0,0.56696,-32.809273,90.744297)"
             clip-path="url(#clipPath92)"
             id="path209" />
          <g
             opacity="0"
             clip-path="url(#clipPath94)"
             id="g210">
            <path
               d="M 0,0 C 0,0 0,0 0,0 0,0 0,0 0,0 0,0 0,0 0,0 0,0 0,0 0,0 0,0 0,0 0,0 0,0 0,0 0,0 0,0 0,0 0,0 0,0 0,0 0,0 0,0 0,0 0,0 0,0 0,0 0,0 0,0 0,0 0,0 0,0 0,0 0,0 0,0 0,0 0,0 0,0 0,0 0,0 0,0 0,0 0,0 0,0 0,0 0,0 0,0 0,0 0,0 0,0 0,0 0,0 0,0 0,0 0,0 0,0 0,0 0,0 0,0 0,0 0,0 0,0 0,0 0,0 0,0 0,0 0,0 0,0 0,0 0,0 0,0 0,0 0,0 0,0 0,0 0,0 0,0 0,0 0,0 0,0 0,0 0,0 0,0 0,0 0,0 0,0 0,0 0,0 0,0 0,0 0,0 0,0 0,0 0,0 0,0 0,0 0,0 0,0 0,0 0,0 0,0 0,0 0,0 0,0 0,0 0,0 0,0 0,0 0,0 0,0 0,0 0,0 0,0 0,0 0,0 0,0 0,0 0,0 0,0 0,0 0,0 0,0 0,0 0,0 0,0 0,0 0,0 0,0 0,0 0,0 0,0 0,0 0,0 0,0 0,0 0,0 0,0 0,0 0,0 0,0 0,0 0,0 0,0 0,0 0,0 0,0 0,0 0,0 0,0 0,0 0,0 0,0 0,0 0,0 0,0 0,0 0,0 0,0 0,0 0,0 0,0 0,0 0,0 0,0 0,0 0,0 0,0 0,0 0,0 0,0 0,0 0,0 0,0 0,0 0,0 0,0 0,0 0,0 0,0 0,0 0,0 0,0 0,0 0,0 0,0 0,0 0,0 0,0 0,0 0,0 0,0 0,0 0,0 0,0 0,0 0,0 0,0 0,0 0,0 0,0 0,0 0,0 0,0 0,0 0,0 0,0 0,0 0,0 0,0 0,0 0,0 0,0 0,0 0,0 0,0 0,0 0,0 0,0 0,0 0,0 0,0 0,0 0,0 0,0 0,0 0,0 0,0 0,0 0,0 0,0 0,0 0,0 0,0 0,0 0,0 0,0 0,0 0,0 0,0 0,0 0,0 0,0 0,0 0,0 0,0 0,0 0,0 0,0 0,0 0,0 0,0 0,0 0,0 0,0 0,0 0,0 0,0 0,0 0,0 0,0 0,0 0,0 Z"
               style="fill:none;stroke:#000000;stroke-width:1;stroke-linecap:butt;stroke-linejoin:miter;stroke-miterlimit:10;stroke-dasharray:none;stroke-opacity:1"
               transform="matrix(0.56696,0,0,-0.56696,71.58286,154.48472)"
               clip-path="url(#clipPath93)"
               id="path210" />
          </g>
          <g
             clip-path="url(#clipPath96)"
             id="g212">
            <g
               opacity="0"
               clip-path="url(#clipPath95)"
               id="g211" />
          </g>
          <g
             clip-path="url(#clipPath98)"
             id="g214">
            <g
               opacity="0"
               id="g213">
              <path
                 d="M 0,0 C 0,0 0,0 0,0 0,0 0,0 0,0 0,0 0,0 0,0 0,0 0,0 0,0 0,0 0,0 0,0 0,0 0,0 0,0 0,0 0,0 0,0 0,0 0,0 0,0 0,0 0,0 0,0 0,0 0,0 0,0 0,0 0,0 0,0 0,0 0,0 0,0 0,0 0,0 0,0 0,0 0,0 0,0 0,0 0,0 0,0 0,0 0,0 0,0 0,0 0,0 0,0 0,0 0,0 0,0 0,0 0,0 0,0 0,0 0,0 0,0 0,0 0,0 0,0 V 0 C 0,0 0,0 0,0 0,0 0,0 0,0 0,0 0,0 0,0 0,0 0,0 0,0 0,0 0,0 0,0 0,0 0,0 0,0 0,0 0,0 0,0 0,0 0,0 0,0 0,0 0,0 0,0 0,0 0,0 0,0 0,0 0,0 0,0 0,0 0,0 0,0 0,0 0,0 0,0 0,0 0,0 0,0 0,0 0,0 0,0 0,0 0,0 0,0 0,0 0,0 0,0 0,0 0,0 0,0 0,0 0,0 0,0 0,0 0,0 0,0 0,0 0,0 0,0 0,0 0,0 0,0 0,0 0,0 0,0 0,0 0,0 0,0 0,0 0,0 0,0 0,0 0,0 0,0 0,0 0,0 0,0 0,0 0,0 0,0 0,0 0,0 0,0 0,0 0,0 0,0 0,0 0,0 0,0 0,0 0,0 0,0 0,0 0,0 0,0 0,0 0,0 0,0 0,0 0,0 0,0 0,0 0,0 0,0 0,0 0,0 0,0 0,0 0,0 0,0 0,0 0,0 0,0 0,0 0,0 0,0 0,0 0,0 0,0 0,0 0,0 0,0 0,0 0,0 0,0 0,0 0,0 0,0 0,0 0,0 0,0 0,0 0,0 0,0 0,0 0,0 0,0 0,0 0,0 0,0 0,0 0,0 0,0 0,0 0,0 0,0 0,0 0,0 0,0 0,0 0,0 0,0 0,0 0,0 0,0 0,0 0,0 0,0 0,0 0,0 0,0 0,0 0,0 0,0 0,0 0,0 0,0 0,0 0,0 0,0 0,0 0,0 0,0 0,0 0,0 0,0 0,0 0,0 0,0 0,0 0,0 0,0 0,0 0,0 0,0 0,0 0,0 0,0 V 0 Z"
                 style="fill:none;stroke:#000000;stroke-width:1;stroke-linecap:butt;stroke-linejoin:miter;stroke-miterlimit:10;stroke-dasharray:none;stroke-opacity:1"
                 transform="matrix(0.56696,0,0,-0.56696,136.33321,209.67034)"
                 clip-path="url(#clipPath97)"
                 id="path212" />
            </g>
          </g>
          <g
             clip-path="url(#clipPath100)"
             id="g216">
            <g
               opacity="0"
               clip-path="url(#clipPath99)"
               id="g215" />
          </g>
          <g
             clip-path="url(#clipPath102)"
             id="g218">
            <g
               opacity="0"
               id="g217">
              <path
                 d="M 0,0 C 0,0 0,0 0,0 0,0 0,0 0,0 0,0 0,0 0,0 0,0 0,0 0,0 0,0 0,0 0,0 0,0 0,0 0,0 0,0 0,0 0,0 0,0 0,0 0,0 0,0 0,0 0,0 0,0 0,0 0,0 0,0 0,0 0,0 0,0 0,0 0,0 0,0 0,0 0,0 0,0 0,0 0,0 0,0 0,0 0,0 0,0 0,0 0,0 0,0 0,0 0,0 0,0 0,0 0,0 0,0 0,0 0,0 0,0 0,0 0,0 0,0 0,0 0,0 0,0 0,0 0,0 0,0 0,0 0,0 0,0 0,0 0,0 0,0 0,0 0,0 0,0 0,0 0,0 0,0 0,0 0,0 0,0 0,0 0,0 0,0 0,0 0,0 0,0 0,0 0,0 0,0 0,0 0,0 0,0 0,0 0,0 0,0 0,0 0,0 0,0 0,0 0,0 0,0 0,0 0,0 0,0 0,0 0,0 0,0 0,0 0,0 0,0 0,0 0,0 0,0 0,0 0,0 0,0 0,0 0,0 0,0 0,0 0,0 V 0 C 0,0 0,0 0,0 0,0 0,0 0,0 0,0 0,0 0,0 0,0 0,0 0,0 0,0 0,0 0,0 0,0 0,0 0,0 0,0 0,0 0,0 0,0 0,0 0,0 0,0 0,0 0,0 0,0 0,0 0,0 0,0 0,0 0,0 0,0 0,0 0,0 0,0 0,0 0,0 0,0 0,0 0,0 0,0 0,0 0,0 0,0 0,0 0,0 0,0 0,0 0,0 0,0 0,0 0,0 0,0 0,0 0,0 0,0 0,0 0,0 0,0 0,0 0,0 0,0 0,0 0,0 0,0 0,0 0,0 0,0 0,0 0,0 0,0 0,0 0,0 0,0 0,0 0,0 0,0 0,0 0,0 0,0 0,0 0,0 0,0 0,0 0,0 0,0 0,0 0,0 0,0 0,0 0,0 0,0 0,0 0,0 0,0 0,0 0,0 V 0 C 0,0 0,0 0,0 0,0 0,0 0,0 0,0 0,0 0,0 0,0 0,0 0,0 0,0 0,0 0,0 0,0 0,0 0,0 0,0 0,0 0,0 0,0 0,0 0,0 0,0 0,0 0,0 0,0 0,0 0,0 Z"
                 style="fill:none;stroke:#000000;stroke-width:1;stroke-linecap:butt;stroke-linejoin:miter;stroke-miterlimit:10;stroke-dasharray:none;stroke-opacity:1"
                 transform="matrix(0.56696,0,0,-0.56696,159.45752,207.87143)"
                 clip-path="url(#clipPath101)"
                 id="path216" />
            </g>
          </g>
          <g
             clip-path="url(#clipPath104)"
             id="g220">
            <g
               opacity="0"
               clip-path="url(#clipPath103)"
               id="g219" />
          </g>
          <g
             clip-path="url(#clipPath106)"
             id="g222">
            <g
               opacity="0"
               id="g221">
              <path
                 d="M 0,0 C 0,0 0,0 0,0 0,0 0,0 0,0 0,0 0,0 0,0 0,0 0,0 0,0 0,0 0,0 0,0 0,0 0,0 0,0 0,0 0,0 0,0 0,0 0,0 0,0 0,0 0,0 0,0 0,0 0,0 0,0 0,0 0,0 0,0 0,0 0,0 0,0 0,0 0,0 0,0 0,0 0,0 0,0 0,0 0,0 0,0 0,0 0,0 0,0 0,0 0,0 0,0 0,0 0,0 0,0 0,0 0,0 0,0 0,0 0,0 0,0 0,0 0,0 0,0 0,0 0,0 0,0 0,0 0,0 0,0 0,0 0,0 0,0 0,0 0,0 0,0 0,0 0,0 0,0 0,0 0,0 0,0 0,0 0,0 0,0 0,0 0,0 0,0 0,0 0,0 0,0 0,0 0,0 0,0 0,0 0,0 0,0 0,0 0,0 0,0 0,0 0,0 0,0 0,0 0,0 0,0 0,0 0,0 0,0 0,0 0,0 0,0 0,0 0,0 0,0 0,0 0,0 0,0 0,0 0,0 0,0 0,0 0,0 0,0 0,0 0,0 0,0 0,0 0,0 0,0 0,0 0,0 0,0 0,0 0,0 0,0 0,0 0,0 0,0 0,0 0,0 0,0 0,0 0,0 0,0 0,0 0,0 0,0 0,0 0,0 0,0 0,0 0,0 0,0 0,0 0,0 0,0 0,0 0,0 0,0 0,0 0,0 0,0 0,0 0,0 0,0 0,0 0,0 0,0 0,0 0,0 0,0 0,0 0,0 0,0 0,0 0,0 0,0 0,0 0,0 0,0 0,0 0,0 0,0 0,0 0,0 0,0 0,0 0,0 0,0 0,0 0,0 0,0 0,0 0,0 0,0 0,0 0,0 0,0 0,0 0,0 0,0 0,0 0,0 0,0 0,0 0,0 0,0 0,0 0,0 0,0 0,0 0,0 0,0 0,0 0,0 0,0 0,0 0,0 0,0 0,0 0,0 0,0 0,0 0,0 0,0 0,0 0,0 0,0 0,0 0,0 0,0 0,0 0,0 0,0 0,0 0,0 0,0 0,0 0,0 0,0 0,0 0,0 0,0 0,0 0,0 0,0 0,0 0,0 0,0 0,0 0,0 0,0 0,0 0,0 0,0 0,0 0,0 0,0 Z"
                 style="fill:none;stroke:#000000;stroke-width:1;stroke-linecap:butt;stroke-linejoin:miter;stroke-miterlimit:10;stroke-dasharray:none;stroke-opacity:1"
                 transform="matrix(0.56696,0,0,-0.56696,71.827787,154.32143)"
                 clip-path="url(#clipPath105)"
                 id="path220" />
            </g>
          </g>
          <g
             clip-path="url(#clipPath108)"
             id="g224">
            <g
               opacity="0"
               clip-path="url(#clipPath107)"
               id="g223" />
          </g>
          <g
             clip-path="url(#clipPath110)"
             id="g225">
            <path
               d="m 0,0 h 1.5 c 0.319,0 0.478,0 0.478,0.319 0,0.176 -0.159,0.176 -0.447,0.176 H 0.128 c 0.574,2.264 0.653,2.583 0.653,2.678 0,0.272 -0.19,0.432 -0.461,0.432 -0.048,0 -0.495,-0.016 -0.639,-0.575 L -0.941,0.495 h -1.498 c -0.319,0 -0.478,0 -0.478,-0.303 C -2.917,0 -2.791,0 -2.472,0 h 1.405 c -1.149,-4.528 -1.213,-4.8 -1.213,-5.086 0,-0.861 0.607,-1.467 1.468,-1.467 1.626,0 2.535,2.328 2.535,2.455 0,0.159 -0.128,0.159 -0.192,0.159 -0.144,0 -0.159,-0.047 -0.239,-0.222 -0.686,-1.659 -1.531,-2.042 -2.073,-2.042 -0.335,0 -0.494,0.208 -0.494,0.734 0,0.383 0.031,0.494 0.095,0.766 z"
               style="fill:#000000;fill-opacity:1;fill-rule:nonzero;stroke:none"
               transform="matrix(0.56696,0,0,-0.56696,160.26436,206.10087)"
               clip-path="url(#clipPath109)"
               id="path224" />
          </g>
          <g
             clip-path="url(#clipPath112)"
             id="g227">
            <g
               opacity="0"
               id="g226">
              <path
                 d="M 0,0 C 0,0 0,0 0,0 0,0 0,0 0,0 0,0 0,0 0,0 0,0 0,0 0,0 0,0 0,0 0,0 0,0 0,0 0,0 0,0 0,0 0,0 0,0 0,0 0,0 0,0 0,0 0,0 0,0 0,0 0,0 0,0 0,0 0,0 0,0 0,0 0,0 0,0 0,0 0,0 0,0 0,0 0,0 0,0 0,0 0,0 0,0 0,0 0,0 0,0 0,0 0,0 0,0 0,0 0,0 0,0 0,0 0,0 0,0 0,0 0,0 0,0 0,0 0,0 V 0 C 0,0 0,0 0,0 0,0 0,0 0,0 0,0 0,0 0,0 0,0 0,0 0,0 0,0 0,0 0,0 0,0 0,0 0,0 0,0 0,0 0,0 0,0 0,0 0,0 0,0 0,0 0,0 0,0 0,0 0,0 0,0 0,0 0,0 0,0 0,0 0,0 0,0 0,0 0,0 0,0 0,0 0,0 0,0 0,0 0,0 0,0 0,0 0,0 0,0 0,0 0,0 0,0 0,0 0,0 0,0 0,0 0,0 0,0 0,0 0,0 0,0 0,0 0,0 0,0 0,0 0,0 0,0 0,0 0,0 0,0 0,0 0,0 0,0 0,0 0,0 0,0 0,0 0,0 0,0 0,0 0,0 0,0 0,0 0,0 0,0 0,0 0,0 0,0 0,0 0,0 0,0 0,0 0,0 0,0 0,0 0,0 0,0 0,0 0,0 0,0 0,0 0,0 0,0 0,0 0,0 0,0 0,0 0,0 0,0 0,0 0,0 0,0 0,0 0,0 0,0 0,0 0,0 0,0 0,0 0,0 0,0 0,0 0,0 0,0 0,0 0,0 0,0 0,0 0,0 0,0 0,0 0,0 0,0 0,0 0,0 0,0 0,0 0,0 0,0 0,0 0,0 0,0 0,0 0,0 0,0 0,0 0,0 0,0 0,0 0,0 0,0 0,0 0,0 0,0 0,0 0,0 0,0 0,0 0,0 0,0 0,0 0,0 0,0 0,0 0,0 0,0 0,0 0,0 0,0 0,0 0,0 0,0 0,0 0,0 0,0 0,0 0,0 0,0 0,0 0,0 0,0 0,0 0,0 0,0 0,0 0,0 0,0 0,0 0,0 0,0 0,0 0,0 0,0 0,0 0,0 Z"
                 style="fill:none;stroke:#000000;stroke-width:1;stroke-linecap:butt;stroke-linejoin:miter;stroke-miterlimit:10;stroke-dasharray:none;stroke-opacity:1"
                 transform="matrix(0.56696,0,0,-0.56696,136.77289,212.12822)"
                 clip-path="url(#clipPath111)"
                 id="path225" />
            </g>
          </g>
          <g
             clip-path="url(#clipPath114)"
             id="g229">
            <g
               opacity="0"
               clip-path="url(#clipPath113)"
               id="g228" />
          </g>
          <g
             clip-path="url(#clipPath116)"
             id="g230">
            <path
               d="m 0,0 h 1.5 c 0.319,0 0.478,0 0.478,0.319 0,0.176 -0.159,0.176 -0.447,0.176 H 0.128 c 0.574,2.264 0.653,2.583 0.653,2.678 0,0.272 -0.19,0.432 -0.461,0.432 -0.048,0 -0.495,-0.016 -0.639,-0.575 L -0.941,0.495 h -1.498 c -0.319,0 -0.478,0 -0.478,-0.303 C -2.917,0 -2.791,0 -2.472,0 h 1.405 c -1.149,-4.528 -1.213,-4.8 -1.213,-5.086 0,-0.861 0.607,-1.467 1.468,-1.467 1.626,0 2.535,2.328 2.535,2.455 0,0.159 -0.128,0.159 -0.192,0.159 -0.144,0 -0.159,-0.047 -0.239,-0.222 -0.686,-1.659 -1.531,-2.042 -2.073,-2.042 -0.335,0 -0.494,0.208 -0.494,0.734 0,0.383 0.031,0.494 0.095,0.766 z"
               style="fill:#000000;fill-opacity:1;fill-rule:nonzero;stroke:none"
               transform="matrix(0.56696,0,0,-0.56696,127.17975,206.38435)"
               clip-path="url(#clipPath115)"
               id="path229" />
          </g>
          <path
             d="m 0,0 c 0.27,0 0.558,0 0.558,0.319 0,0.32 -0.288,0.32 -0.558,0.32 h -8.628 c -0.27,0 -0.558,0 -0.558,-0.32 C -9.186,0 -8.898,0 -8.628,0 Z"
             style="fill:#000000;fill-opacity:1;fill-rule:nonzero;stroke:none"
             transform="matrix(0.56696,0,0,-0.56696,136.54877,207.92132)"
             clip-path="url(#clipPath117)"
             id="path230" />
          <path
             d="m 0,0 c 0,0.383 0,0.414 -0.367,0.414 -0.989,-1.02 -2.392,-1.02 -2.903,-1.02 V -1.1 c 0.318,0 1.261,0 2.089,0.414 v -8.261 c 0,-0.573 -0.047,-0.766 -1.483,-0.766 h -0.509 v -0.493 c 0.557,0.048 1.945,0.048 2.582,0.048 0.638,0 2.025,0 2.583,-0.048 v 0.493 H 1.483 C 0.047,-9.713 0,-9.536 0,-8.947 Z"
             style="fill:#000000;fill-opacity:1;fill-rule:nonzero;stroke:none"
             transform="matrix(0.56696,0,0,-0.56696,142.26355,204.21391)"
             clip-path="url(#clipPath118)"
             id="path231" />
          <g
             clip-path="url(#clipPath120)"
             id="g233">
            <g
               opacity="0"
               id="g232">
              <path
                 d="M 0,0 C 0,0 0,0 0,0 0,0 0,0 0,0 0,0 0,0 0,0 0,0 0,0 0,0 0,0 0,0 0,0 0,0 0,0 0,0 0,0 0,0 0,0 0,0 0,0 0,0 0,0 0,0 0,0 0,0 0,0 0,0 0,0 0,0 0,0 0,0 0,0 0,0 0,0 0,0 0,0 0,0 0,0 0,0 0,0 0,0 0,0 0,0 0,0 0,0 0,0 0,0 0,0 0,0 0,0 0,0 0,0 0,0 0,0 0,0 0,0 0,0 0,0 0,0 0,0 V 0 C 0,0 0,0 0,0 0,0 0,0 0,0 0,0 0,0 0,0 0,0 0,0 0,0 0,0 0,0 0,0 0,0 0,0 0,0 0,0 0,0 0,0 0,0 0,0 0,0 0,0 0,0 0,0 0,0 0,0 0,0 0,0 0,0 0,0 0,0 0,0 0,0 0,0 0,0 0,0 0,0 0,0 0,0 0,0 0,0 0,0 0,0 0,0 0,0 0,0 0,0 0,0 0,0 0,0 0,0 0,0 0,0 0,0 0,0 0,0 0,0 0,0 0,0 0,0 0,0 0,0 0,0 0,0 0,0 0,0 0,0 0,0 0,0 0,0 0,0 0,0 0,0 0,0 0,0 V 0 C 0,0 0,0 0,0 0,0 0,0 0,0 0,0 0,0 0,0 0,0 0,0 0,0 0,0 0,0 0,0 0,0 0,0 0,0 0,0 0,0 0,0 0,0 0,0 0,0 0,0 0,0 0,0 0,0 0,0 0,0 0,0 0,0 0,0 0,0 0,0 0,0 0,0 0,0 0,0 0,0 0,0 0,0 0,0 0,0 0,0 0,0 0,0 0,0 0,0 0,0 0,0 0,0 0,0 0,0 0,0 0,0 0,0 0,0 0,0 0,0 0,0 0,0 0,0 0,0 0,0 0,0 0,0 0,0 0,0 0,0 0,0 0,0 0,0 0,0 0,0 0,0 0,0 0,0 0,0 0,0 0,0 0,0 0,0 0,0 0,0 0,0 0,0 0,0 0,0 0,0 0,0 0,0 0,0 0,0 0,0 0,0 0,0 0,0 0,0 0,0 0,0 0,0 0,0 0,0 0,0 0,0 0,0 0,0 0,0 0,0 0,0 V 0 Z"
                 style="fill:none;stroke:#000000;stroke-width:1;stroke-linecap:butt;stroke-linejoin:miter;stroke-miterlimit:10;stroke-dasharray:none;stroke-opacity:1"
                 transform="matrix(0.56696,0,0,-0.56696,108.61816,205.69969)"
                 clip-path="url(#clipPath119)"
                 id="path232" />
            </g>
          </g>
          <g
             clip-path="url(#clipPath122)"
             id="g235">
            <g
               opacity="0"
               clip-path="url(#clipPath121)"
               id="g234" />
          </g>
          <g
             clip-path="url(#clipPath124)"
             id="g236">
            <path
               d="m 0,0 h 1.5 c 0.319,0 0.478,0 0.478,0.319 0,0.176 -0.159,0.176 -0.447,0.176 H 0.128 c 0.574,2.264 0.653,2.583 0.653,2.678 0,0.272 -0.19,0.432 -0.461,0.432 -0.048,0 -0.495,-0.016 -0.639,-0.575 L -0.941,0.495 h -1.498 c -0.319,0 -0.478,0 -0.478,-0.303 C -2.917,0 -2.791,0 -2.472,0 h 1.405 c -1.149,-4.528 -1.213,-4.8 -1.213,-5.086 0,-0.861 0.607,-1.467 1.468,-1.467 1.626,0 2.535,2.328 2.535,2.455 0,0.159 -0.128,0.159 -0.192,0.159 -0.144,0 -0.159,-0.047 -0.239,-0.222 -0.686,-1.659 -1.531,-2.042 -2.073,-2.042 -0.335,0 -0.494,0.208 -0.494,0.734 0,0.383 0.031,0.494 0.095,0.766 z"
               style="fill:#000000;fill-opacity:1;fill-rule:nonzero;stroke:none"
               transform="matrix(0.56696,0,0,-0.56696,101.1822,206.38435)"
               clip-path="url(#clipPath123)"
               id="path235" />
          </g>
          <path
             d="m 0,0 c 0.27,0 0.558,0 0.558,0.319 0,0.32 -0.288,0.32 -0.558,0.32 h -8.628 c -0.27,0 -0.558,0 -0.558,-0.32 C -9.186,0 -8.898,0 -8.628,0 Z"
             style="fill:#000000;fill-opacity:1;fill-rule:nonzero;stroke:none"
             transform="matrix(0.56696,0,0,-0.56696,110.55121,207.92132)"
             clip-path="url(#clipPath125)"
             id="path236" />
          <path
             d="m 0,0 1.691,1.642 c 2.487,2.2 3.443,3.063 3.443,4.656 0,1.819 -1.434,3.094 -3.379,3.094 -1.802,0 -2.983,-1.467 -2.983,-2.886 0,-0.893 0.798,-0.893 0.845,-0.893 0.272,0 0.83,0.192 0.83,0.845 0,0.415 -0.288,0.829 -0.845,0.829 -0.129,0 -0.16,0 -0.208,-0.015 0.367,1.036 1.228,1.626 2.153,1.626 1.451,0 2.137,-1.292 2.137,-2.6 0,-1.275 -0.798,-2.536 -1.675,-3.523 L -1.052,-0.637 C -1.228,-0.814 -1.228,-0.845 -1.228,-1.228 H 4.689 L 5.134,1.547 H 4.736 C 4.656,1.069 4.545,0.367 4.386,0.127 4.273,0 3.222,0 2.87,0 Z"
             style="fill:#000000;fill-opacity:1;fill-rule:nonzero;stroke:none"
             transform="matrix(0.56696,0,0,-0.56696,114.75556,209.30419)"
             clip-path="url(#clipPath126)"
             id="path237" />
        </g>
      </g>
    </g>
  </g>
</svg>
